<?xml version="1.0" standalone="no"?>
<!DOCTYPE svg PUBLIC "-//W3C//DTD SVG 20010904//EN"
 "http://www.w3.org/TR/2001/REC-SVG-20010904/DTD/svg10.dtd">
<svg version="1.0" xmlns="http://www.w3.org/2000/svg"
 width="426.000000pt" height="182.000000pt" viewBox="0 0 426.000000 182.000000"
 preserveAspectRatio="xMidYMid meet">
<metadata>
Created by potrace 1.15, written by Peter Selinger 2001-2017
</metadata>
<g transform="translate(0.000000,182.000000) scale(0.100000,-0.100000)"
fill="#000000" stroke="none">
<path d="M710 1375 c0 -250 4 -385 10 -385 6 0 10 62 10 165 l0 165 118 0 118
0 22 -37 22 -38 0 38 c0 35 2 37 33 38 17 0 41 4 52 9 12 5 -56 9 -172 9
l-193 1 0 200 0 200 188 1 c109 1 177 4 162 9 -14 4 -103 8 -197 9 l-173 1 0
-385z"/>
<path d="M710 770 l0 -60 -252 -1 c-139 0 -262 -4 -273 -9 -12 -5 91 -9 253
-9 l272 -1 0 -315 c0 -203 4 -315 10 -315 6 0 10 135 10 385 0 250 -4 385 -10
385 -6 0 -10 -27 -10 -60z"/>
</g>
</svg>
