<?xml version="1.0" encoding="utf-8"?>
<!-- Generator: Adobe Illustrator 17.0.0, SVG Export Plug-In . SVG Version: 6.00 Build 0)  -->
<!DOCTYPE svg PUBLIC "-//W3C//DTD SVG 1.1//EN" "http://www.w3.org/Graphics/SVG/1.1/DTD/svg11.dtd">
<svg version="1.1" id="Layer_1" xmlns="http://www.w3.org/2000/svg" xmlns:xlink="http://www.w3.org/1999/xlink" x="0px" y="0px"
	 width="792px" height="612px" viewBox="0 0 792 612" enable-background="new 0 0 792 612" xml:space="preserve">
<g>
	
		<circle fill="none" stroke="#231F20" stroke-width="6" stroke-linecap="round" stroke-linejoin="round" stroke-miterlimit="10" cx="396.738" cy="306.298" r="104.228"/>
	<path fill="none" stroke="#231F20" stroke-width="6" stroke-linecap="round" stroke-linejoin="round" stroke-miterlimit="10" d="
		M447.37,329.036c0,8.633-6.998,15.631-15.631,15.631h-70.003c-8.633,0-15.631-6.998-15.631-15.631v-66.01
		c0-8.633,6.998-15.631,15.631-15.631h70.003c8.633,0,15.631,6.998,15.631,15.631V329.036z"/>
	<g>
		
			<line fill="none" stroke="#231F20" stroke-width="6" stroke-linecap="round" stroke-linejoin="round" stroke-miterlimit="10" x1="363.947" y1="355.92" x2="350.087" y2="369.763"/>
		
			<line fill="none" stroke="#231F20" stroke-width="6" stroke-linecap="round" stroke-linejoin="round" stroke-miterlimit="10" x1="429.529" y1="355.92" x2="443.388" y2="369.763"/>
	</g>
	<path fill="none" stroke="#231F20" stroke-width="6" stroke-linecap="round" stroke-linejoin="round" stroke-miterlimit="10" d="
		M432.778,271.46c0-6.145-4.981-11.126-11.126-11.126h-49.827c-6.145,0-11.126,4.981-11.126,11.126v22.856h0v4.204
		c0,3.566,2.89,6.456,6.456,6.456h59.167c3.566,0,6.456-2.891,6.456-6.456v-4.204h0V271.46z"/>
	
		<circle fill="none" stroke="#231F20" stroke-width="6" stroke-linecap="round" stroke-linejoin="round" stroke-miterlimit="10" cx="365.977" cy="322.951" r="5.279"/>
	
		<circle fill="none" stroke="#231F20" stroke-width="6" stroke-linecap="round" stroke-linejoin="round" stroke-miterlimit="10" cx="376.536" cy="322.951" r="5.279"/>
	
		<circle fill="none" stroke="#231F20" stroke-width="6" stroke-linecap="round" stroke-linejoin="round" stroke-miterlimit="10" cx="416.94" cy="322.951" r="5.279"/>
	
		<circle fill="none" stroke="#231F20" stroke-width="6" stroke-linecap="round" stroke-linejoin="round" stroke-miterlimit="10" cx="427.498" cy="322.951" r="5.279"/>
</g>
</svg>
