<?xml version="1.0" encoding="utf-8"?>
<!-- Generator: Adobe Illustrator 17.0.0, SVG Export Plug-In . SVG Version: 6.00 Build 0)  -->
<!DOCTYPE svg PUBLIC "-//W3C//DTD SVG 1.1//EN" "http://www.w3.org/Graphics/SVG/1.1/DTD/svg11.dtd">
<svg version="1.1" id="Layer_1" xmlns="http://www.w3.org/2000/svg" xmlns:xlink="http://www.w3.org/1999/xlink" x="0px" y="0px"
	 width="792px" height="612px" viewBox="0 0 792 612" enable-background="new 0 0 792 612" xml:space="preserve">
<circle fill="none" stroke="#231F20" stroke-width="6" stroke-linecap="round" stroke-linejoin="round" stroke-miterlimit="10" cx="396.952" cy="306.607" r="104.228"/>
<path fill="none" stroke="#231F20" stroke-width="6" stroke-linecap="round" stroke-linejoin="round" stroke-miterlimit="10" d="
	M378.322,346.107c0,0,5.509,26.169-10.192,26.169c-15.701,0-11.191-26.169-11.191-26.169H378.322z"/>
<path fill="none" stroke="#231F20" stroke-width="6" stroke-linecap="round" stroke-linejoin="round" stroke-miterlimit="10" d="
	M355.591,334.148c0-6.336-3.714-18.456-3.714-28.372c0-9.917,5.785-40.492,24.516-40.492c13.36,0,15.701,39.391,8.815,47.654
	s-5.957,15.357-5.957,22.312h-23.66"/>
<path fill="none" stroke="#231F20" stroke-width="6" stroke-linecap="round" stroke-linejoin="round" stroke-miterlimit="10" d="
	M415.676,316.082c0,0-5.509,26.169,10.192,26.169c15.701,0,11.191-26.169,11.191-26.169H415.676z"/>
<path fill="none" stroke="#231F20" stroke-width="6" stroke-linecap="round" stroke-linejoin="round" stroke-miterlimit="10" d="
	M438.406,304.123c0-6.336,3.714-18.456,3.714-28.372s-5.785-40.492-24.516-40.492c-13.36,0-15.701,39.391-8.815,47.654
	s5.957,15.357,5.957,22.312h23.66"/>
</svg>
