<?xml version="1.0" encoding="utf-8"?>
<!-- Generator: Adobe Illustrator 17.0.0, SVG Export Plug-In . SVG Version: 6.00 Build 0)  -->
<!DOCTYPE svg PUBLIC "-//W3C//DTD SVG 1.1//EN" "http://www.w3.org/Graphics/SVG/1.1/DTD/svg11.dtd">
<svg version="1.1" id="Layer_1" xmlns="http://www.w3.org/2000/svg" xmlns:xlink="http://www.w3.org/1999/xlink" x="0px" y="0px"
	 width="792px" height="612px" viewBox="0 0 792 612" enable-background="new 0 0 792 612" xml:space="preserve">
<g>
	
		<circle fill="none" stroke="#231F20" stroke-width="6" stroke-linecap="round" stroke-linejoin="round" stroke-miterlimit="10" cx="396.92" cy="306.298" r="104.228"/>
</g>
<g>
	
		<line fill="none" stroke="#231F20" stroke-width="6" stroke-linecap="round" stroke-linejoin="round" stroke-miterlimit="10" x1="408.673" y1="275.279" x2="432.876" y2="316.373"/>
	<path fill="none" stroke="#231F20" stroke-width="6" stroke-linecap="round" stroke-linejoin="round" stroke-miterlimit="10" d="
		M391.497,300.286v-55.94h24.872c8.542,0,15.467,6.925,15.467,15.467c0,8.542-6.925,15.467-15.467,15.467h-24.872"/>
	<path fill="none" stroke="#231F20" stroke-width="6" stroke-linecap="round" stroke-linejoin="round" stroke-miterlimit="10" d="
		M391.497,321.193h-37.741c-5.81,0-10.52,4.894-10.52,10.931c0,6.037,4.71,10.931,10.52,10.931h9.186l0,0
		c6.466,0,11.437,5.446,11.437,12.164c0,6.718-5.241,12.164-11.707,12.164v-0.015h-12.47"/>
	
		<line fill="none" stroke="#231F20" stroke-width="6" stroke-linecap="round" stroke-linejoin="round" stroke-miterlimit="10" x1="418.756" y1="322.812" x2="418.756" y2="371.309"/>
	
		<line fill="none" stroke="#231F20" stroke-width="6" stroke-linecap="round" stroke-linejoin="round" stroke-miterlimit="10" x1="391.497" y1="311.701" x2="391.497" y2="371.309"/>
	<g>
		
			<polyline fill="none" stroke="#231F20" stroke-width="6" stroke-linecap="round" stroke-linejoin="round" stroke-miterlimit="10" points="
			352.427,251.38 352.427,300.286 391.497,300.286 		"/>
		
			<circle fill="none" stroke="#231F20" stroke-width="6" stroke-linecap="round" stroke-linejoin="round" stroke-miterlimit="10" cx="391.497" cy="305.792" r="5.506"/>
		
			<circle fill="none" stroke="#231F20" stroke-width="6" stroke-linecap="round" stroke-linejoin="round" stroke-miterlimit="10" cx="352.427" cy="245.874" r="5.506"/>
		
			<polyline fill="none" stroke="#231F20" stroke-width="6" stroke-linecap="round" stroke-linejoin="round" stroke-miterlimit="10" points="
			446.016,360.243 446.016,310.629 418.756,322.812 388.865,310.629 		"/>
		
			<circle fill="none" stroke="#231F20" stroke-width="6" stroke-linecap="round" stroke-linejoin="round" stroke-miterlimit="10" cx="446.016" cy="365.749" r="5.506"/>
	</g>
</g>
</svg>
