<?xml version="1.0" encoding="utf-8"?>
<!-- Generator: Adobe Illustrator 17.0.0, SVG Export Plug-In . SVG Version: 6.00 Build 0)  -->
<!DOCTYPE svg PUBLIC "-//W3C//DTD SVG 1.1//EN" "http://www.w3.org/Graphics/SVG/1.1/DTD/svg11.dtd">
<svg version="1.1" id="Layer_1" xmlns="http://www.w3.org/2000/svg" xmlns:xlink="http://www.w3.org/1999/xlink" x="0px" y="0px"
	 width="792px" height="612px" viewBox="0 0 792 612" enable-background="new 0 0 792 612" xml:space="preserve">
<circle fill="none" stroke="#231F20" stroke-width="6" stroke-linecap="round" stroke-linejoin="round" stroke-miterlimit="10" cx="396.311" cy="306.008" r="103.556"/>
<circle fill="none" stroke="#231F20" stroke-width="6" stroke-linecap="round" stroke-linejoin="round" stroke-miterlimit="10" cx="353.079" cy="322.163" r="23.465"/>
<circle fill="none" stroke="#231F20" stroke-width="6" stroke-linecap="round" stroke-linejoin="round" stroke-miterlimit="10" cx="443.736" cy="322.163" r="23.465"/>
<path fill="none" stroke="#231F20" stroke-width="6" stroke-linecap="round" stroke-linejoin="round" stroke-miterlimit="10" d="
	M353.079,322.163c2.3-3.067,3.323-4.856,4.09-8.179c0.767-3.323,13.547-48.565,13.547-48.565s-9.457,0-14.825,0h-1.278
	c-4.941,0-8.946,4.005-8.946,8.946c0,4.941,4.005,8.946,8.946,8.946"/>
<line fill="none" stroke="#231F20" stroke-width="6" stroke-linecap="round" stroke-linejoin="round" stroke-miterlimit="10" x1="366.668" y1="279.778" x2="419.412" y2="279.778"/>
<line fill="none" stroke="#231F20" stroke-width="6" stroke-linecap="round" stroke-linejoin="round" stroke-miterlimit="10" x1="424.392" y1="265.418" x2="402.336" y2="330.403"/>
<line fill="none" stroke="#231F20" stroke-width="6" stroke-linecap="round" stroke-linejoin="round" stroke-miterlimit="10" x1="402.336" y1="330.403" x2="366.058" y2="281.945"/>
<line fill="none" stroke="#231F20" stroke-width="6" stroke-linecap="round" stroke-linejoin="round" stroke-miterlimit="10" x1="402.336" y1="330.403" x2="443.736" y2="322.163"/>
<line fill="none" stroke="#231F20" stroke-width="6" stroke-linecap="round" stroke-linejoin="round" stroke-miterlimit="10" x1="443.736" y1="322.163" x2="419.412" y2="279.778"/>
<line fill="none" stroke="#231F20" stroke-width="6" stroke-linecap="round" stroke-linejoin="round" stroke-miterlimit="10" x1="408.252" y1="264.396" x2="430.572" y2="263.885"/>
</svg>
