<?xml version="1.0" encoding="utf-8"?>
<!-- Generator: Adobe Illustrator 17.0.0, SVG Export Plug-In . SVG Version: 6.00 Build 0)  -->
<!DOCTYPE svg PUBLIC "-//W3C//DTD SVG 1.1//EN" "http://www.w3.org/Graphics/SVG/1.1/DTD/svg11.dtd">
<svg version="1.1" id="Layer_1" xmlns="http://www.w3.org/2000/svg" xmlns:xlink="http://www.w3.org/1999/xlink" x="0px" y="0px"
	 width="792px" height="612px" viewBox="0 0 792 612" enable-background="new 0 0 792 612" xml:space="preserve">
<g>
	
		<circle fill="none" stroke="#231F20" stroke-width="6" stroke-linecap="round" stroke-linejoin="round" stroke-miterlimit="10" cx="396.702" cy="306.538" r="104.228"/>
	
		<circle fill="none" stroke="#231F20" stroke-width="6" stroke-linecap="round" stroke-linejoin="round" stroke-miterlimit="10" cx="396.702" cy="306.538" r="62.225"/>
	
		<circle fill="none" stroke="#231F20" stroke-width="6" stroke-linecap="round" stroke-linejoin="round" stroke-miterlimit="10" cx="396.702" cy="306.538" r="39.368"/>
	
		<circle fill="none" stroke="#231F20" stroke-width="6" stroke-linecap="round" stroke-linejoin="round" stroke-miterlimit="10" cx="396.702" cy="306.538" r="5.279"/>
	<path fill="none" stroke="#231F20" stroke-width="6" stroke-linecap="round" stroke-linejoin="round" stroke-miterlimit="10" d="
		M396.702,306.538"/>
	<g>
		<path fill="none" stroke="#231F20" stroke-width="6" stroke-linecap="round" stroke-linejoin="round" stroke-miterlimit="10" d="
			M406.293,277.311l-7.934,14.55l0.001,0.002c-0.251,0.637-0.872,1.087-1.598,1.087h-0.12c-0.726,0-1.347-0.451-1.598-1.087
			l0.001-0.002l-7.934-14.55l0,0c3.001-0.976,6.204-1.503,9.531-1.503c3.367,0,6.607,0.54,9.64,1.539L406.293,277.311z"/>
		<path fill="none" stroke="#231F20" stroke-width="6" stroke-linecap="round" stroke-linejoin="round" stroke-miterlimit="10" d="
			M387.112,335.766l7.934-14.55l-0.001-0.002c0.251-0.637,0.872-1.087,1.598-1.087h0.12c0.726,0,1.347,0.451,1.598,1.087
			l-0.001,0.002l7.934,14.55l0,0c-3.001,0.976-6.204,1.503-9.531,1.503c-3.367,0-6.607-0.54-9.64-1.539L387.112,335.766z"/>
	</g>
	<g>
		<path fill="none" stroke="#231F20" stroke-width="6" stroke-linecap="round" stroke-linejoin="round" stroke-miterlimit="10" d="
			M376.186,283.618l8.634,14.146l0.003,0c0.426,0.536,0.506,1.299,0.143,1.928l-0.06,0.104c-0.363,0.629-1.064,0.941-1.741,0.84
			l-0.001-0.002l-16.568-0.404l0,0c0.655-3.087,1.8-6.125,3.464-9.006c1.683-2.916,3.772-5.452,6.153-7.579L376.186,283.618z"/>
		<path fill="none" stroke="#231F20" stroke-width="6" stroke-linecap="round" stroke-linejoin="round" stroke-miterlimit="10" d="
			M417.219,329.458l-8.634-14.146l-0.003,0c-0.426-0.536-0.506-1.299-0.143-1.928l0.06-0.104c0.363-0.629,1.064-0.941,1.741-0.84
			l0.001,0.002l16.568,0.404l0,0c-0.655,3.087-1.8,6.125-3.463,9.006c-1.683,2.916-3.772,5.452-6.153,7.579L417.219,329.458z"/>
	</g>
	<g>
		<path fill="none" stroke="#231F20" stroke-width="6" stroke-linecap="round" stroke-linejoin="round" stroke-miterlimit="10" d="
			M366.595,312.846l16.568-0.404l0.001-0.002c0.677-0.101,1.378,0.211,1.741,0.84l0.06,0.104c0.363,0.629,0.283,1.392-0.143,1.928
			l-0.003,0l-8.634,14.146l0,0c-2.346-2.111-4.404-4.621-6.067-7.502c-1.683-2.916-2.836-5.992-3.487-9.118L366.595,312.846z"/>
		<path fill="none" stroke="#231F20" stroke-width="6" stroke-linecap="round" stroke-linejoin="round" stroke-miterlimit="10" d="
			M426.81,300.23l-16.568,0.404l-0.001,0.002c-0.677,0.101-1.378-0.211-1.741-0.84l-0.06-0.104
			c-0.363-0.629-0.283-1.392,0.143-1.928l0.003,0l8.634-14.146l0,0c2.346,2.111,4.404,4.621,6.067,7.502
			c1.683,2.916,2.836,5.992,3.487,9.118L426.81,300.23z"/>
	</g>
</g>
</svg>
