<?xml version="1.0" encoding="utf-8"?>
<!-- Generator: Adobe Illustrator 17.0.0, SVG Export Plug-In . SVG Version: 6.00 Build 0)  -->
<!DOCTYPE svg PUBLIC "-//W3C//DTD SVG 1.1//EN" "http://www.w3.org/Graphics/SVG/1.1/DTD/svg11.dtd">
<svg version="1.1" id="Layer_1" xmlns="http://www.w3.org/2000/svg" xmlns:xlink="http://www.w3.org/1999/xlink" x="0px" y="0px"
	 width="792px" height="612px" viewBox="0 0 792 612" enable-background="new 0 0 792 612" xml:space="preserve">
<g>
	
		<circle fill="none" stroke="#231F20" stroke-width="6" stroke-linecap="round" stroke-linejoin="round" stroke-miterlimit="10" cx="396.48" cy="306.665" r="104.228"/>
	<g>
		<path fill="none" stroke="#231F20" stroke-width="6" stroke-linecap="round" stroke-linejoin="round" stroke-miterlimit="10" d="
			M425.873,285.846l0.863,5.071c-9.019,2.601-18.783,4.843-29.041,6.589c-10.258,1.746-20.213,2.862-29.585,3.392l-0.849-4.989
			c-13.797,4.275-26.837,9.762-38.941,16.29c22.863,3.628,47.244,3.629,72.091-0.601c24.848-4.23,47.855-12.299,68.229-23.288
			C454.861,286.123,440.526,285.265,425.873,285.846z"/>
		<path fill="none" stroke="#231F20" stroke-width="6" stroke-linecap="round" stroke-linejoin="round" stroke-miterlimit="10" d="
			M390.335,254.267c-16.189,2.756-27.079,18.114-24.323,34.303l2.127,12.496c9.372-0.53,19.327-1.645,29.585-3.392
			c10.258-1.746,20.022-3.988,29.041-6.589l-2.127-12.496C421.882,262.401,406.524,251.511,390.335,254.267z"/>
		
			<line fill="none" stroke="#231F20" stroke-width="6" stroke-linecap="round" stroke-linejoin="round" stroke-miterlimit="10" x1="376.632" y1="323.948" x2="367.461" y2="349.353"/>
		
			<line fill="none" stroke="#231F20" stroke-width="6" stroke-linecap="round" stroke-linejoin="round" stroke-miterlimit="10" x1="398.8" y1="324.673" x2="401.667" y2="369.49"/>
		
			<line fill="none" stroke="#231F20" stroke-width="6" stroke-linecap="round" stroke-linejoin="round" stroke-miterlimit="10" x1="424.298" y1="318.532" x2="437.653" y2="333.804"/>
	</g>
</g>
</svg>
