<?xml version="1.0" encoding="utf-8"?>
<!-- Generator: Adobe Illustrator 17.0.0, SVG Export Plug-In . SVG Version: 6.00 Build 0)  -->
<!DOCTYPE svg PUBLIC "-//W3C//DTD SVG 1.1//EN" "http://www.w3.org/Graphics/SVG/1.1/DTD/svg11.dtd">
<svg version="1.1" id="Layer_1" xmlns="http://www.w3.org/2000/svg" xmlns:xlink="http://www.w3.org/1999/xlink" x="0px" y="0px"
	 width="792px" height="612px" viewBox="0 0 792 612" enable-background="new 0 0 792 612" xml:space="preserve">
<g>
	
		<circle fill="none" stroke="#231F20" stroke-width="6" stroke-linecap="round" stroke-linejoin="round" stroke-miterlimit="10" cx="395.728" cy="306.298" r="104.228"/>
	<g>
		<path fill="none" stroke="#231F20" stroke-width="6" stroke-linecap="round" stroke-linejoin="round" stroke-miterlimit="10" d="
			M438.419,268.141h-17.268c-3.514,0-6.363-2.849-6.363-6.363v-17.267"/>
		<path fill="none" stroke="#231F20" stroke-width="6" stroke-linecap="round" stroke-linejoin="round" stroke-miterlimit="10" d="
			M438.418,268.142v94.089c0,3.514-2.849,6.363-6.363,6.363h-72.654c-3.514,0-6.363-2.849-6.363-6.363V250.874
			c0-3.514,2.849-6.363,6.363-6.363h55.387L438.418,268.142z"/>
	</g>
	
		<line fill="none" stroke="#231F20" stroke-width="6" stroke-linecap="round" stroke-linejoin="round" stroke-miterlimit="10" x1="366.743" y1="287.766" x2="424.714" y2="287.766"/>
	
		<line fill="none" stroke="#231F20" stroke-width="6" stroke-linecap="round" stroke-linejoin="round" stroke-miterlimit="10" x1="366.743" y1="300.296" x2="424.714" y2="300.296"/>
	
		<line fill="none" stroke="#231F20" stroke-width="6" stroke-linecap="round" stroke-linejoin="round" stroke-miterlimit="10" x1="366.743" y1="312.826" x2="424.714" y2="312.826"/>
	
		<line fill="none" stroke="#231F20" stroke-width="6" stroke-linecap="round" stroke-linejoin="round" stroke-miterlimit="10" x1="366.743" y1="325.356" x2="424.714" y2="325.356"/>
	
		<line fill="none" stroke="#231F20" stroke-width="6" stroke-linecap="round" stroke-linejoin="round" stroke-miterlimit="10" x1="366.743" y1="337.886" x2="424.714" y2="337.886"/>
	
		<line fill="none" stroke="#231F20" stroke-width="6" stroke-linecap="round" stroke-linejoin="round" stroke-miterlimit="10" x1="366.743" y1="350.416" x2="424.714" y2="350.416"/>
</g>
</svg>
