<?xml version="1.0" encoding="utf-8"?>
<!-- Generator: Adobe Illustrator 17.0.0, SVG Export Plug-In . SVG Version: 6.00 Build 0)  -->
<!DOCTYPE svg PUBLIC "-//W3C//DTD SVG 1.1//EN" "http://www.w3.org/Graphics/SVG/1.1/DTD/svg11.dtd">
<svg version="1.1" id="Layer_1" xmlns="http://www.w3.org/2000/svg" xmlns:xlink="http://www.w3.org/1999/xlink" x="0px" y="0px"
	 width="792px" height="612px" viewBox="0 0 792 612" enable-background="new 0 0 792 612" xml:space="preserve">
<g>
	
		<circle fill="none" stroke="#231F20" stroke-width="6" stroke-linecap="round" stroke-linejoin="round" stroke-miterlimit="10" cx="395.472" cy="305.989" r="104.228"/>
	<path fill="none" stroke="#231F20" stroke-width="6" stroke-linecap="round" stroke-linejoin="round" stroke-miterlimit="10" d="
		M339.745,344.008c-3.517,0-6.369-2.851-6.369-6.369v-62.066c0-3.517,2.851-6.369,6.369-6.369h111.454
		c3.517,0,6.369,2.851,6.369,6.369v62.066c0,3.517-2.851,6.369-6.369,6.369H339.745z"/>
	
		<circle fill="none" stroke="#231F20" stroke-width="6" stroke-linecap="round" stroke-linejoin="round" stroke-miterlimit="10" cx="395.472" cy="306.607" r="25.134"/>
	
		<circle fill="none" stroke="#231F20" stroke-width="6" stroke-linecap="round" stroke-linejoin="round" stroke-miterlimit="10" cx="395.472" cy="306.607" r="14.482"/>
	<path fill="none" stroke="#231F20" stroke-width="6" stroke-linecap="round" stroke-linejoin="round" stroke-miterlimit="10" d="
		M387.508,268.91V261.5c0-4.418-3.582-8-8-8h-18.341c-4.418,0-8,3.582-8,8v7.409"/>
	
		<circle fill="none" stroke="#231F20" stroke-width="6" stroke-linecap="round" stroke-linejoin="round" stroke-miterlimit="10" cx="439.045" cy="289.377" r="6.748"/>
</g>
</svg>
