<?xml version="1.0" encoding="UTF-8" standalone="no"?>
<!-- Generator: Adobe Illustrator 17.0.0, SVG Export Plug-In . SVG Version: 6.00 Build 0)  -->

<svg
   xmlns:dc="http://purl.org/dc/elements/1.1/"
   xmlns:cc="http://creativecommons.org/ns#"
   xmlns:rdf="http://www.w3.org/1999/02/22-rdf-syntax-ns#"
   xmlns:svg="http://www.w3.org/2000/svg"
   xmlns="http://www.w3.org/2000/svg"
   xmlns:sodipodi="http://sodipodi.sourceforge.net/DTD/sodipodi-0.dtd"
   xmlns:inkscape="http://www.inkscape.org/namespaces/inkscape"
   version="1.1"
   id="Layer_1"
   x="0px"
   y="0px"
   width="300"
   height="100"
   viewBox="0 0 300 100"
   enable-background="new 0 0 792 612"
   xml:space="preserve"
   sodipodi:docname="LOGO-LRSM-Typo-INVERSE.svg"
   inkscape:version="0.92.2 (5c3e80d, 2017-08-06)"><metadata
     id="metadata171"><rdf:RDF><cc:Work
         rdf:about=""><dc:format>image/svg+xml</dc:format><dc:type
           rdf:resource="http://purl.org/dc/dcmitype/StillImage" /><dc:title /></cc:Work></rdf:RDF></metadata><defs
     id="defs169" /><sodipodi:namedview
     pagecolor="#ffffff"
     bordercolor="#666666"
     borderopacity="1"
     objecttolerance="10"
     gridtolerance="10"
     guidetolerance="10"
     inkscape:pageopacity="0"
     inkscape:pageshadow="2"
     inkscape:window-width="1920"
     inkscape:window-height="1017"
     id="namedview167"
     showgrid="false"
     inkscape:zoom="3.0849673"
     inkscape:cx="202.71384"
     inkscape:cy="47.147979"
     inkscape:window-x="1072"
     inkscape:window-y="-8"
     inkscape:window-maximized="1"
     inkscape:current-layer="Layer_1" /><g
     id="g164"
     transform="matrix(0.51687632,0,0,0.5067127,-126.75604,-105.25498)"><path
       d="M 262.936,280.794 V 258.45 h 4.978 v 17.585 h 9.644 v 4.758 h -14.622 z"
       id="path92"
       inkscape:connector-curvature="0" /><path
       d="M 281.403,280.794 V 258.45 h 14.149 v 4.695 h -9.171 v 4.254 h 8.321 v 4.381 h -8.321 v 4.286 h 9.204 v 4.727 h -14.182 z"
       id="path94"
       inkscape:connector-curvature="0" /><path
       d="M 308.79,280.794 V 258.45 h 4.978 v 17.585 h 9.644 v 4.758 H 308.79 Z"
       id="path96"
       inkscape:connector-curvature="0" /><path
       d="m 340.684,276.256 h -8.636 l -1.607,4.538 h -5.232 l 8.416,-22.344 h 5.767 l 8.319,22.344 h -5.421 z m -6.998,-4.538 h 5.421 l -2.68,-7.721 z"
       id="path98"
       inkscape:connector-curvature="0" /><path
       d="m 359.433,258.451 c 4.413,0 6.965,2.553 6.965,5.988 0,2.3 -1.449,4.191 -3.279,4.79 2.017,0.472 3.972,2.332 3.972,5.23 0,3.656 -2.774,6.335 -6.998,6.335 h -9.012 V 258.45 h 8.352 z m -0.789,8.949 c 1.733,0 2.867,-0.914 2.867,-2.426 0,-1.449 -0.975,-2.395 -2.931,-2.395 h -2.647 v 4.821 z m 0.41,9.329 c 1.922,0 3.089,-1.008 3.089,-2.615 0,-1.545 -1.134,-2.616 -3.089,-2.616 h -3.12 v 5.23 h 3.12 z"
       id="path100"
       inkscape:connector-curvature="0" /><path
       d="m 381.491,257.979 c 6.271,0 11.597,4.569 11.597,11.66 0,7.059 -5.326,11.628 -11.597,11.628 -6.304,0 -11.63,-4.569 -11.63,-11.628 0,-7.091 5.326,-11.66 11.63,-11.66 z m 0,18.372 c 3.087,0 6.427,-2.08 6.427,-6.744 0,-4.664 -3.34,-6.775 -6.427,-6.775 -3.12,0 -6.463,2.112 -6.463,6.775 0,4.664 3.343,6.744 6.463,6.744 z"
       id="path102"
       inkscape:connector-curvature="0" /><path
       d="m 404.023,272.475 h -1.766 v 8.32 h -4.978 v -22.344 h 8.856 c 4.413,0 7.249,3.025 7.249,6.996 0,3.025 -1.671,5.325 -4.413,6.303 l 4.538,9.044 h -5.483 z m 1.164,-4.286 c 2.05,0 3.153,-1.134 3.153,-2.711 0,-1.67 -1.103,-2.711 -3.153,-2.711 h -2.931 v 5.421 h 2.931 z"
       id="path104"
       inkscape:connector-curvature="0" /><path
       d="m 431.029,276.256 h -8.636 l -1.607,4.538 h -5.232 l 8.416,-22.344 h 5.767 l 8.319,22.344 h -5.421 z m -6.998,-4.538 h 5.421 l -2.68,-7.721 z"
       id="path106"
       inkscape:connector-curvature="0" /><path
       d="m 449.399,263.209 v 17.585 h -4.978 v -17.585 h -6.87 v -4.758 h 18.751 v 4.758 z"
       id="path108"
       inkscape:connector-curvature="0" /><path
       d="m 469.788,257.979 c 6.271,0 11.597,4.569 11.597,11.66 0,7.059 -5.326,11.628 -11.597,11.628 -6.304,0 -11.63,-4.569 -11.63,-11.628 0,-7.091 5.326,-11.66 11.63,-11.66 z m 0,18.372 c 3.087,0 6.427,-2.08 6.427,-6.744 0,-4.664 -3.34,-6.775 -6.427,-6.775 -3.12,0 -6.46,2.112 -6.46,6.775 0,4.664 3.34,6.744 6.46,6.744 z"
       id="path110"
       inkscape:connector-curvature="0" /><path
       d="M 485.575,280.794 V 258.45 h 5.042 v 22.344 z"
       id="path112"
       inkscape:connector-curvature="0" /><path
       d="m 502.814,272.475 h -1.766 v 8.32 h -4.978 v -22.344 h 8.856 c 4.413,0 7.249,3.025 7.249,6.996 0,3.025 -1.671,5.325 -4.413,6.303 l 4.538,9.044 h -5.483 z m 1.164,-4.286 c 2.05,0 3.153,-1.134 3.153,-2.711 0,-1.67 -1.103,-2.711 -3.153,-2.711 h -2.931 v 5.421 h 2.931 z"
       id="path114"
       inkscape:connector-curvature="0" /><path
       d="M 516.49,280.794 V 258.45 h 14.149 v 4.695 h -9.171 v 4.254 h 8.321 v 4.381 h -8.321 v 4.286 h 9.204 v 4.727 H 516.49 Z"
       id="path116"
       inkscape:connector-curvature="0" /><path
       d="m 273.839,301.557 c -0.156,-1.04 -1.008,-2.805 -3.719,-2.805 -1.858,0 -3.056,1.166 -3.056,2.395 0,1.072 0.663,1.859 2.206,2.144 l 2.995,0.567 c 4.254,0.788 6.46,3.53 6.46,6.712 0,3.499 -2.931,7.059 -8.257,7.059 -6.176,0 -8.825,-4.002 -9.14,-7.153 l 4.569,-1.103 c 0.189,2.048 1.577,3.844 4.633,3.844 1.955,0 3.153,-0.946 3.153,-2.332 0,-1.135 -0.914,-1.954 -2.396,-2.238 l -3.056,-0.567 c -3.783,-0.724 -6.084,-3.246 -6.084,-6.555 0,-4.223 3.719,-7.185 8.006,-7.185 5.577,0 7.689,3.34 8.162,5.956 z"
       id="path118"
       inkscape:connector-curvature="0" /><path
       d="m 282.537,309.088 v -14.276 h 4.981 v 13.866 c 0,2.711 1.513,4.065 3.875,4.065 2.362,0 3.875,-1.354 3.875,-4.065 v -13.866 h 4.981 v 14.276 c 0,5.609 -3.939,8.572 -8.856,8.572 -4.917,0 -8.856,-2.963 -8.856,-8.572 z"
       id="path120"
       inkscape:connector-curvature="0" /><path
       d="m 312.286,308.836 h -1.766 v 8.32 h -4.978 v -22.344 h 8.856 c 4.413,0 7.249,3.025 7.249,6.996 0,3.025 -1.671,5.325 -4.413,6.303 l 4.538,9.044 h -5.483 z m 1.165,-4.286 c 2.05,0 3.153,-1.134 3.153,-2.711 0,-1.67 -1.103,-2.711 -3.153,-2.711 h -2.931 v 5.421 h 2.931 z"
       id="path122"
       inkscape:connector-curvature="0" /><path
       d="m 334.347,317.156 v -22.344 h 4.978 v 17.585 h 9.644 v 4.758 h -14.622 z"
       id="path124"
       inkscape:connector-curvature="0" /><path
       d="m 352.814,317.156 v -22.344 h 14.149 v 4.695 h -9.171 v 4.254 h 8.321 v 4.381 h -8.321 v 4.286 h 9.204 v 4.727 h -14.182 z"
       id="path126"
       inkscape:connector-curvature="0" /><path
       d="m 382.72,301.557 c -0.156,-1.04 -1.008,-2.805 -3.719,-2.805 -1.858,0 -3.056,1.166 -3.056,2.395 0,1.072 0.663,1.859 2.206,2.144 l 2.995,0.567 c 4.254,0.788 6.46,3.53 6.46,6.712 0,3.499 -2.931,7.059 -8.257,7.059 -6.176,0 -8.825,-4.002 -9.14,-7.153 l 4.569,-1.103 c 0.189,2.048 1.577,3.844 4.633,3.844 1.955,0 3.153,-0.946 3.153,-2.332 0,-1.135 -0.914,-1.954 -2.396,-2.238 l -3.056,-0.567 c -3.783,-0.724 -6.084,-3.246 -6.084,-6.555 0,-4.223 3.719,-7.185 8.006,-7.185 5.577,0 7.689,3.34 8.162,5.956 z"
       id="path128"
       inkscape:connector-curvature="0" /><path
       d="M 406.766,308.836 H 405 v 8.32 h -4.978 v -22.344 h 8.856 c 4.413,0 7.249,3.025 7.249,6.996 0,3.025 -1.671,5.325 -4.413,6.303 l 4.538,9.044 h -5.483 z m 1.167,-4.286 c 2.048,0 3.151,-1.134 3.151,-2.711 0,-1.67 -1.103,-2.711 -3.151,-2.711 H 405 v 5.421 h 2.933 z"
       id="path130"
       inkscape:connector-curvature="0" /><path
       d="m 420.442,317.156 v -22.344 h 14.149 v 4.695 h -9.171 v 4.254 h 8.321 v 4.381 h -8.321 v 4.286 h 9.204 v 4.727 h -14.182 z m 8.257,-23.919 h -4.254 l 3.276,-4.16 h 5.705 z"
       id="path132"
       inkscape:connector-curvature="0" /><path
       d="m 438.121,306.031 c 0,-6.965 5.296,-11.691 11.536,-11.691 6.711,0 9.675,4.317 10.399,7.531 l -4.697,1.481 c -0.346,-1.543 -1.764,-4.159 -5.703,-4.159 -2.995,0 -6.366,2.142 -6.366,6.838 0,4.191 3.087,6.619 6.427,6.619 3.878,0 5.421,-2.585 5.861,-4.191 l 4.761,1.354 c -0.727,3.089 -3.688,7.816 -10.622,7.816 -6.426,-0.001 -11.596,-4.633 -11.596,-11.598 z"
       id="path134"
       inkscape:connector-curvature="0" /><path
       d="m 464.374,317.156 v -22.344 h 5.042 v 22.344 z"
       id="path136"
       inkscape:connector-curvature="0" /><path
       d="m 484.886,299.57 v 17.585 h -4.978 V 299.57 h -6.87 v -4.758 h 18.751 v 4.758 z"
       id="path138"
       inkscape:connector-curvature="0" /><path
       d="m 506.346,301.557 c -0.156,-1.04 -1.008,-2.805 -3.719,-2.805 -1.858,0 -3.056,1.166 -3.056,2.395 0,1.072 0.663,1.859 2.206,2.144 l 2.995,0.567 c 4.254,0.788 6.46,3.53 6.46,6.712 0,3.499 -2.931,7.059 -8.257,7.059 -6.179,0 -8.825,-4.002 -9.14,-7.153 l 4.569,-1.103 c 0.189,2.048 1.577,3.844 4.633,3.844 1.955,0 3.153,-0.946 3.153,-2.332 0,-1.135 -0.914,-1.954 -2.396,-2.238 l -3.056,-0.567 c -3.783,-0.724 -6.084,-3.246 -6.084,-6.555 0,-4.223 3.719,-7.185 8.006,-7.185 5.577,0 7.689,3.34 8.162,5.956 z"
       id="path140"
       inkscape:connector-curvature="0" /><path
       d="m 262.936,353.517 v -22.344 h 8.098 c 6.714,0 11.221,4.286 11.221,11.188 0,6.902 -4.507,11.156 -11.252,11.156 z m 7.878,-4.695 c 3.435,0 6.24,-1.985 6.24,-6.46 0,-4.475 -2.805,-6.492 -6.24,-6.492 h -2.9 v 12.953 h 2.9 z"
       id="path142"
       inkscape:connector-curvature="0" /><path
       d="m 286.253,345.449 v -14.276 h 4.981 v 13.866 c 0,2.711 1.513,4.065 3.875,4.065 2.363,0 3.875,-1.354 3.875,-4.065 v -13.866 h 4.981 v 14.276 c 0,5.609 -3.939,8.572 -8.856,8.572 -4.917,0 -8.856,-2.962 -8.856,-8.572 z"
       id="path144"
       inkscape:connector-curvature="0" /><path
       d="m 328.547,337.918 c -0.156,-1.04 -1.008,-2.805 -3.719,-2.805 -1.858,0 -3.056,1.166 -3.056,2.395 0,1.072 0.663,1.859 2.206,2.144 l 2.995,0.567 c 4.254,0.788 6.46,3.53 6.46,6.712 0,3.499 -2.931,7.059 -8.257,7.059 -6.176,0 -8.825,-4.002 -9.14,-7.153 l 4.569,-1.103 c 0.189,2.048 1.577,3.844 4.633,3.844 1.955,0 3.153,-0.946 3.153,-2.332 0,-1.135 -0.914,-1.954 -2.396,-2.238 l -3.056,-0.567 c -3.783,-0.724 -6.084,-3.246 -6.084,-6.555 0,-4.223 3.719,-7.185 8.006,-7.185 5.577,0 7.689,3.34 8.162,5.956 z"
       id="path146"
       inkscape:connector-curvature="0" /><path
       d="m 347.772,330.701 c 6.271,0 11.597,4.569 11.597,11.66 0,7.059 -5.326,11.628 -11.597,11.628 -6.304,0 -11.63,-4.569 -11.63,-11.628 -10e-4,-7.091 5.325,-11.66 11.63,-11.66 z m 0,18.373 c 3.087,0 6.427,-2.08 6.427,-6.744 0,-4.664 -3.34,-6.775 -6.427,-6.775 -3.12,0 -6.463,2.112 -6.463,6.775 0,4.664 3.342,6.744 6.463,6.744 z"
       id="path148"
       inkscape:connector-curvature="0" /><path
       d="m 363.557,353.517 v -22.344 h 5.042 v 22.344 z"
       id="path150"
       inkscape:connector-curvature="0" /><path
       d="m 402.858,353.517 v -14.812 l -5.831,14.812 h -4.034 l -5.831,-14.623 v 14.623 h -4.727 v -22.344 h 6.491 l 6.145,15.095 5.831,-15.095 h 6.839 v 22.344 z"
       id="path152"
       inkscape:connector-curvature="0" /><path
       d="m 423.56,330.701 c 6.271,0 11.597,4.569 11.597,11.66 0,7.059 -5.326,11.628 -11.597,11.628 -6.304,0 -11.63,-4.569 -11.63,-11.628 -0.001,-7.091 5.326,-11.66 11.63,-11.66 z m 0,18.373 c 3.087,0 6.427,-2.08 6.427,-6.744 0,-4.664 -3.34,-6.775 -6.427,-6.775 -3.12,0 -6.46,2.112 -6.46,6.775 0,4.664 3.34,6.744 6.46,6.744 z"
       id="path154"
       inkscape:connector-curvature="0" /><path
       d="m 447.697,331.174 c 4.413,0 6.965,2.553 6.965,5.988 0,2.3 -1.449,4.191 -3.279,4.79 2.017,0.472 3.972,2.332 3.972,5.23 0,3.656 -2.774,6.335 -6.998,6.335 h -9.012 v -22.344 h 8.352 z m -0.789,8.949 c 1.733,0 2.869,-0.914 2.869,-2.426 0,-1.449 -0.978,-2.394 -2.933,-2.394 h -2.647 v 4.821 h 2.711 z m 0.41,9.328 c 1.922,0 3.089,-1.008 3.089,-2.615 0,-1.545 -1.136,-2.616 -3.089,-2.616 h -3.12 v 5.23 h 3.12 z"
       id="path156"
       inkscape:connector-curvature="0" /><path
       d="m 459.417,353.517 v -22.344 h 5.042 v 22.344 z"
       id="path158"
       inkscape:connector-curvature="0" /><path
       d="m 469.911,353.517 v -22.344 h 4.978 v 17.585 h 9.644 v 4.758 h -14.622 z"
       id="path160"
       inkscape:connector-curvature="0" /><path
       d="m 488.378,353.517 v -22.344 h 14.149 v 4.695 h -9.171 v 4.254 h 8.321 v 4.381 h -8.321 v 4.286 h 9.204 v 4.727 h -14.182 z"
       id="path162"
       inkscape:connector-curvature="0" /></g><path
     style="fill:#ffffff;stroke-width:0.09693965"
     d="m 9.1535796,31.37254 v -5.65101 h 1.2571844 1.257184 v 4.490535 4.490534 h 2.514368 2.514368 v 1.160475 1.160474 H 12.925132 9.1535796 Z"
     id="path266"
     inkscape:connector-curvature="0" /><path
     style="fill:#ffffff;stroke-width:0.09693965"
     d="m 18.745427,31.37254 v -5.65101 h 3.631866 3.631864 v 1.160476 1.160474 h -2.37468 -2.374681 v 1.110021 1.11002 h 2.141868 2.14187 v 1.059564 1.059563 h -2.14187 -2.141868 v 1.160476 1.160475 h 2.374681 2.37468 v 1.160475 1.160474 h -3.631864 -3.631866 z"
     id="path268"
     inkscape:connector-curvature="0" /><path
     style="fill:#ffffff;stroke-width:0.09693965"
     d="m 32.900387,31.37254 v -5.65101 h 1.257185 1.257183 v 4.490535 4.490534 h 2.467806 2.467805 v 1.160475 1.160474 h -3.724989 -3.72499 z"
     id="path270"
     inkscape:connector-curvature="0" /><path
     style="fill:#ffffff;stroke-width:0.09693965"
     d="m 41.707419,36.193781 c 0.178975,-0.459393 1.152293,-2.992232 2.162928,-5.628528 l 1.837519,-4.793266 1.452844,-0.02772 1.452842,-0.02772 0.189597,0.48182 c 0.104274,0.265002 1.008405,2.63879 2.009174,5.275086 1.000763,2.636298 1.885928,4.964775 1.967023,5.174395 l 0.147453,0.381129 -1.365152,-0.02795 -1.365146,-0.02793 -0.400311,-1.11002 -0.400306,-1.110019 -2.279753,-0.02698 -2.279753,-0.02698 -0.411048,1.136991 -0.411049,1.136991 -1.316136,0.02798 -1.316136,0.02798 z m 6.837925,-3.781204 c 0,-0.07535 -1.297417,-3.754797 -1.377396,-3.906265 -0.04088,-0.07741 -0.61878,1.429025 -1.322152,3.446465 L 45.66109,32.48256 h 1.442126 c 0.79317,0 1.442128,-0.03149 1.442128,-0.06999 z"
     id="path272"
     inkscape:connector-curvature="0" /><path
     style="fill:#ffffff;stroke-width:0.09693965"
     d="m 54.784701,31.37254 v -5.65101 l 2.258274,7.48e-4 c 2.494916,9.09e-4 3.208282,0.08541 3.956728,0.469092 1.677662,0.860019 2.098799,2.942879 0.865286,4.279528 -0.248525,0.269296 -0.560347,0.519136 -0.692955,0.555201 -0.261325,0.07107 -0.330744,0.245515 -0.0977,0.245515 0.252593,0 0.824006,0.374859 1.17908,0.773509 1.228336,1.379069 0.697403,3.669786 -1.047192,4.518178 -0.749671,0.36456 -1.559939,0.453525 -4.163247,0.457117 l -2.258274,0.0031 z m 4.754659,3.531956 c 0.182174,-0.05484 0.45456,-0.239208 0.605305,-0.409707 0.2338,-0.264436 0.274085,-0.389619 0.274085,-0.851755 0,-0.462135 -0.04024,-0.587317 -0.274085,-0.851754 C 59.781707,32.380755 59.4064,32.281974 58.207038,32.2813 l -1.001091,-5.62e-4 v 1.362296 1.362298 l 1.001091,-5.66e-4 c 0.550597,-3.13e-4 1.150141,-0.04543 1.332322,-0.10027 z m -0.105844,-4.801898 c 0.469464,-0.203548 0.674816,-0.544882 0.674816,-1.121677 0,-0.360735 -0.05385,-0.516708 -0.258561,-0.748185 -0.337995,-0.38229 -0.734171,-0.49174 -1.782423,-0.492425 l -0.861401,-5.62e-4 v 1.261385 1.261387 h 0.929361 c 0.630956,0 1.047793,-0.05135 1.298208,-0.159923 z"
     id="path276"
     inkscape:connector-curvature="0" /><path
     style="fill:#ffffff;stroke-width:0.09693965"
     d="M 69.290126,37.127794 C 66.394345,36.555799 64.46967,34.257889 64.46967,31.37254 c 0,-2.857479 1.848488,-5.132118 4.641155,-5.711147 1.497799,-0.310553 2.900878,-0.104835 4.287011,0.628547 1.153778,0.610447 1.884591,1.385728 2.424143,2.571663 1.522993,3.347522 -0.1845,7.124633 -3.66951,8.117265 -0.664405,0.18924 -2.242559,0.271351 -2.862343,0.148926 z m 2.648819,-2.650963 c 0.697147,-0.345849 1.226711,-0.888035 1.537778,-1.574428 0.22791,-0.502911 0.258864,-0.685835 0.258864,-1.529863 0,-0.822688 -0.03449,-1.038323 -0.243118,-1.520381 -0.786405,-1.816973 -2.949202,-2.494127 -4.804682,-1.504305 -0.691305,0.368781 -1.16303,0.930203 -1.432456,1.704837 -0.268052,0.770651 -0.221985,2.161317 0.09385,2.833512 0.402833,0.857366 1.058748,1.439098 2.009544,1.782271 0.607356,0.219216 1.95359,0.119226 2.580222,-0.191643 z"
     id="path278"
     inkscape:connector-curvature="0" /><path
     style="fill:#ffffff;stroke-width:0.09693965"
     d="m 78.62464,31.37254 v -5.65101 l 2.35139,7.48e-4 c 1.293275,4.18e-4 2.622985,0.04851 2.95491,0.106862 1.575468,0.276978 2.653507,1.350574 2.871963,2.860135 0.217397,1.502245 -0.483477,2.920137 -1.736301,3.512614 -0.239481,0.113254 -0.446287,0.215592 -0.459579,0.227416 -0.01325,0.01182 0.498029,1.039013 1.13626,2.282638 l 1.160416,2.261135 -1.271459,0.02821 c -0.699311,0.01552 -1.319406,0.0083 -1.377994,-0.01608 -0.05861,-0.02436 -0.563053,-0.979312 -1.121031,-2.122109 l -1.014496,-2.077814 h -0.489862 -0.489849 v 2.119128 2.119129 H 79.88182 78.62464 Z m 4.999273,-0.902484 c 0.455237,-0.223966 0.681333,-0.624458 0.681333,-1.206886 0,-0.553613 -0.15796,-0.882295 -0.551462,-1.147484 -0.287024,-0.193435 -0.491389,-0.229507 -1.474001,-0.260176 l -1.140775,-0.0356 v 1.423127 1.42313 l 1.047646,-0.0022 c 0.827181,-0.0017 1.12965,-0.04255 1.437259,-0.193892 z"
     id="path280"
     inkscape:connector-curvature="0" /><path
     style="fill:#ffffff;stroke-width:0.09693965"
     d="m 88.163767,36.846955 c 0.03312,-0.09712 1.006899,-2.640081 2.16381,-5.651009 l 2.103486,-5.474416 1.454727,0.0022 1.454735,0.0022 2.067305,5.472163 c 1.13702,3.009689 2.09487,5.551629 2.12856,5.648756 0.0565,0.163112 -0.0418,0.176594 -1.28769,0.176594 h -1.348929 l -0.407125,-1.160439 -0.407125,-1.160439 -2.28401,-3.6e-5 -2.284011,-3.5e-5 -0.406124,1.160474 -0.406116,1.160475 h -1.300916 c -1.199866,0 -1.296228,-0.01371 -1.240577,-0.176594 z m 6.954975,-4.843723 c -0.09488,-0.263629 -0.416219,-1.171104 -0.714079,-2.01661 -0.297875,-0.845505 -0.561174,-1.51605 -0.585123,-1.490099 -0.06127,0.06637 -1.412439,3.798889 -1.412439,3.901705 0,0.04638 0.64893,0.08434 1.442068,0.08434 h 1.442077 z"
     id="path282"
     inkscape:connector-curvature="0" /><path
     style="fill:#ffffff;stroke-width:0.09693965"
     d="M 103.02331,32.533016 V 28.04248 h -1.76937 -1.76937 V 26.882006 25.72153 h 4.79593 4.79593 v 1.158297 1.158296 l -1.79266,0.0274 -1.79265,0.0274 -0.0243,4.465306 -0.0243,4.465307 h -1.20965 -1.20965 z"
     id="path284"
     inkscape:connector-curvature="0" /><path
     style="fill:#ffffff;stroke-width:0.09693965"
     d="M 61.210311,68.205009 V 62.554 h 1.257181 1.257181 v 5.651009 5.651008 h -1.257181 -1.257181 z"
     id="path286"
     inkscape:connector-curvature="0" /><path
     style="fill:#ffffff;stroke-width:0.09693965"
     d="m 39.884743,73.90635 c -1.619394,-0.397659 -2.905596,-1.639785 -3.203709,-3.093922 -0.05417,-0.264214 -0.04194,-0.271798 0.759487,-0.470885 1.422207,-0.353299 1.512974,-0.363857 1.512974,-0.175982 0,0.09164 0.08495,0.347056 0.18878,0.567592 0.574179,1.219587 2.61396,1.623326 3.562338,0.705101 0.410899,-0.397833 0.418457,-0.981748 0.01832,-1.415077 -0.292911,-0.317207 -0.595483,-0.416115 -2.423754,-0.7923 -1.569443,-0.32293 -2.518095,-0.993781 -2.999959,-2.121458 -0.1999,-0.467815 -0.225269,-0.644394 -0.18847,-1.311841 0.06367,-1.154835 0.519256,-1.97684 1.457059,-2.628942 1.811825,-1.259852 4.660079,-0.991809 5.970491,0.561869 0.46404,0.550186 0.84382,1.392907 0.692139,1.535836 -0.08209,0.07735 -1.892986,0.617717 -2.070117,0.617717 -0.04903,0 -0.11409,-0.107701 -0.144579,-0.239338 -0.09829,-0.424389 -0.72909,-0.940684 -1.308565,-1.07104 -1.165091,-0.262095 -2.194932,0.331432 -2.194932,1.265003 0,0.433133 0.516255,0.910387 1.120695,1.036033 0.279944,0.05819 0.965605,0.201483 1.523691,0.318425 0.558087,0.116944 1.233781,0.32493 1.501544,0.462192 1.407999,0.721782 2.150057,2.216388 1.781846,3.588884 -0.310732,1.158252 -1.096032,2.014284 -2.282402,2.487975 -0.79172,0.316119 -2.355834,0.399348 -3.272874,0.174158 z"
     id="path288"
     inkscape:connector-curvature="0" /><path
     style="fill:#ffffff;stroke-width:0.09693965"
     d="m 39.723129,73.801365 c -1.442568,-0.420984 -2.870557,-1.851336 -2.940237,-2.945103 -0.01721,-0.27014 0.0096,-0.287406 0.773732,-0.497729 0.435359,-0.119835 0.922518,-0.222008 1.082575,-0.227049 0.249771,-0.0079 0.298718,0.03256 0.345364,0.285295 0.07229,0.391677 0.559433,0.978756 1.03105,1.242568 0.580707,0.324834 1.774844,0.372396 2.309406,0.09198 0.651488,-0.341749 0.874139,-0.9249 0.584701,-1.531408 -0.195674,-0.410029 -0.47911,-0.543041 -1.816472,-0.85244 -1.74515,-0.40374 -2.431485,-0.693706 -3.018873,-1.275432 -0.656495,-0.650165 -0.89025,-1.198416 -0.89025,-2.088006 0,-0.903159 0.204535,-1.521621 0.701177,-2.120192 0.757467,-0.912926 1.988556,-1.431681 3.392596,-1.429566 1.670296,0.0026 2.978147,0.704505 3.639129,1.953303 0.413112,0.780495 0.399942,0.805288 -0.589344,1.109508 -1.107357,0.340527 -1.197981,0.336373 -1.369824,-0.06278 -0.330063,-0.76666 -1.669792,-1.205792 -2.557684,-0.838352 -0.853689,0.353285 -1.169387,1.248606 -0.631839,1.791893 0.382956,0.387043 0.522212,0.441762 1.847294,0.725881 1.835429,0.393547 2.520642,0.710536 3.111076,1.439228 0.782867,0.966186 0.946338,2.047684 0.473291,3.131214 -0.480203,1.099924 -1.484825,1.900518 -2.697595,2.149745 -0.704273,0.144731 -2.200159,0.116441 -2.779273,-0.05256 z"
     id="path290"
     inkscape:connector-curvature="0" /><path
     style="fill:#ffffff;stroke-width:0.09693965"
     d="m 51.782674,73.953618 c -2.242963,-0.409257 -4.056497,-2.114732 -4.580986,-4.308037 -0.184304,-0.770716 -0.185583,-2.00435 -0.003,-2.843933 0.42181,-1.9391 1.867361,-3.460247 3.954099,-4.160879 0.890899,-0.299123 2.595124,-0.326147 3.53874,-0.05611 1.42723,0.408432 2.718705,1.392205 3.464817,2.639292 0.984778,1.64602 1.038639,3.907498 0.136909,5.748982 -1.06823,2.181504 -3.867339,3.462987 -6.510631,2.980687 z m 2.792261,-2.664409 c 0.667642,-0.328235 1.244727,-0.946802 1.542816,-1.653721 0.284477,-0.674629 0.284477,-2.18633 0,-2.860958 -0.279869,-0.663715 -0.860815,-1.307689 -1.492248,-1.654156 -0.503384,-0.276206 -0.610444,-0.295879 -1.610174,-0.295879 -0.966001,0 -1.122911,0.0264 -1.601415,0.269449 -1.167242,0.59288 -1.751072,1.631052 -1.751072,3.113768 0,1.634679 0.687817,2.709803 2.076664,3.246004 0.750686,0.289823 2.066597,0.213476 2.835429,-0.164507 z"
     id="path292"
     inkscape:connector-curvature="0" /><path
     style="fill:#ffffff;stroke-width:0.09693965"
     d="m 24.379473,73.916035 c -1.109392,-0.296969 -1.971299,-0.917894 -2.517589,-1.813696 -0.56602,-0.928151 -0.602088,-1.265667 -0.602088,-5.634017 V 62.554 h 1.257183 1.257184 v 3.837853 c 0,4.111833 0.01364,4.246182 0.478175,4.709526 0.530582,0.529226 1.777814,0.726748 2.502933,0.396384 0.387185,-0.1764 0.787264,-0.610849 0.924207,-1.003602 0.06364,-0.182504 0.09905,-1.652773 0.09905,-4.112118 V 62.554 h 1.26107 1.26107 l -0.02717,4.162573 c -0.02667,4.086303 -0.03113,4.173199 -0.243271,4.742473 -0.444688,1.193287 -1.633461,2.186496 -2.978001,2.488098 -0.642112,0.144034 -2.081029,0.127286 -2.672752,-0.03111 z"
     id="path294"
     inkscape:connector-curvature="0" /><path
     style="fill:#ffffff;stroke-width:0.09693965"
     d="M 9.1535796,68.215226 V 62.554 l 1.9323384,8.4e-5 c 3.971941,1.73e-4 5.292653,0.360647 6.62783,1.808989 1.5676,1.700463 1.831896,4.835683 0.584007,6.927836 -0.660883,1.108007 -1.692443,1.876215 -3.06183,2.28016 -0.640823,0.189031 -1.047221,0.220067 -3.405008,0.260018 l -2.6773374,0.04537 z m 5.5124754,3.073702 c 0.531159,-0.209779 1.231938,-0.85818 1.464995,-1.355497 0.617406,-1.317471 0.415487,-3.111665 -0.456533,-4.056592 -0.656307,-0.711182 -1.25449,-0.922428 -2.772666,-0.979158 l -1.233903,-0.04612 v 3.353199 3.353199 l 1.280465,-0.04819 c 0.879785,-0.03312 1.417266,-0.102217 1.717642,-0.220851 z"
     id="path296"
     inkscape:connector-curvature="0" /><path
     style="fill:#ffffff;stroke-width:0.09693965"
     d="m 12.312311,55.582817 c -1.693702,-0.157501 -3.0226044,-1.051536 -3.6295844,-2.441848 -0.44207,-1.012578 -0.439133,-1.017764 0.726946,-1.2837 0.5506,-0.12557 1.0463194,-0.246897 1.1015994,-0.269617 0.05528,-0.02271 0.150685,0.140167 0.212011,0.361972 0.255542,0.924235 0.956433,1.428567 2.087005,1.501723 0.838375,0.05424 1.43983,-0.137509 1.743526,-0.555876 0.367111,-0.505727 0.152877,-1.247014 -0.459574,-1.590204 -0.141834,-0.07948 -0.75671,-0.23673 -1.36639,-0.349449 -1.496545,-0.276684 -1.966149,-0.441005 -2.627056,-0.919242 -2.3089784,-1.670792 -1.3703934,-5.206721 1.577563,-5.943158 0.610286,-0.152456 2.11017,-0.128268 2.720045,0.04387 1.266853,0.357562 2.16831,1.19586 2.537572,2.359783 l 0.115749,0.364842 -1.085485,0.312621 -1.085487,0.312621 -0.127729,-0.26194 c -0.361816,-0.741993 -0.973585,-1.115251 -1.82789,-1.115251 -0.96847,0 -1.660724,0.506413 -1.660724,1.214889 0,0.730704 0.397683,1.01283 1.775512,1.259595 2.340447,0.419164 3.320824,0.971376 3.91829,2.207036 0.207445,0.429031 0.247059,0.640397 0.247059,1.318245 0,0.988747 -0.244481,1.571539 -0.966084,2.302949 -0.943597,0.956421 -2.199797,1.330747 -3.926874,1.170143 z"
     id="path298"
     inkscape:connector-curvature="0" /><path
     style="fill:#ffffff;stroke-width:0.09693965"
     d="m 22.973487,55.591451 c -1.917467,-0.30466 -3.264539,-1.578504 -3.568089,-3.374122 -0.06104,-0.361082 -0.10122,-2.073545 -0.10122,-4.313939 v -3.715169 h 1.257183 1.257184 v 3.736943 c 0,3.144662 0.02284,3.796188 0.144132,4.11074 0.290809,0.754199 0.756371,1.101355 1.606056,1.19759 1.110295,0.125752 2.008944,-0.413005 2.248576,-1.348061 0.05984,-0.233538 0.09789,-1.798001 0.09821,-4.039193 l 5.2e-4,-3.658019 h 1.257183 1.257185 l -0.0019,3.557108 c -0.002,3.828303 -0.0654,4.67004 -0.413968,5.495078 -0.718483,1.700587 -2.85721,2.698038 -5.0411,2.351044 z"
     id="path300"
     inkscape:connector-curvature="0" /><path
     style="fill:#ffffff;stroke-width:0.09693965"
     d="m 31.224142,49.788774 v -5.600553 l 2.584211,0.0026 c 1.421316,0.0014 2.767985,0.04837 2.992595,0.104483 1.01953,0.254695 1.893875,0.971989 2.34826,1.926459 0.313183,0.657864 0.352864,1.867034 0.0864,2.632571 -0.248223,0.713114 -0.837053,1.377497 -1.540408,1.738058 -0.281087,0.144093 -0.511068,0.277429 -0.511068,0.296302 0,0.01887 0.487237,0.982503 1.082748,2.1414 0.595511,1.158897 1.102869,2.163848 1.127461,2.233224 0.0345,0.09733 -0.262802,0.126139 -1.301676,0.126139 h -1.346389 l -1.026116,-2.093912 -1.026115,-2.0939 -0.477763,-0.0305 -0.477765,-0.0305 v 2.124402 2.124401 H 32.48133 31.224147 Z m 4.982394,-0.879447 c 0.448144,-0.255581 0.6287,-0.541698 0.675598,-1.070582 0.05623,-0.63417 -0.146028,-1.062438 -0.627464,-1.328585 -0.304729,-0.168458 -0.548898,-0.202811 -1.441515,-0.202811 H 33.73851 v 1.425189 1.425191 l 1.094216,-0.04448 c 0.749378,-0.03047 1.182329,-0.09473 1.37381,-0.203927 z"
     id="path302"
     inkscape:connector-curvature="0" /><path
     style="fill:#ffffff;stroke-width:0.09693965"
     d="m 55.622825,49.788774 v -5.600553 h 3.631861 3.631869 v 1.160475 1.160474 h -2.374684 -2.374678 v 1.11002 1.11002 h 2.141865 2.141877 v 1.059564 1.059564 h -2.141877 -2.141865 v 1.11002 1.110019 h 2.374678 2.374684 v 1.160475 1.160476 h -3.631869 -3.631861 z"
     id="path304"
     inkscape:connector-curvature="0" /><path
     style="fill:#ffffff;stroke-width:0.09693965"
     d="m 46.1241,49.788774 v -5.600553 h 1.210622 1.210622 v 4.440078 4.440078 h 2.514367 2.514369 v 1.160475 1.160476 H 49.84909 46.1241 Z"
     id="path306"
     inkscape:connector-curvature="0" /><path
     style="fill:#ffffff;stroke-width:0.09693965"
     d="m 68.613725,55.579515 c -1.351763,-0.136913 -2.285666,-0.597868 -3.069127,-1.514858 -0.452674,-0.529818 -0.888672,-1.433031 -0.888672,-1.840962 0,-0.10707 1.337025,-0.484716 2.125699,-0.600407 0.0679,-0.01 0.181001,0.160895 0.251268,0.379689 0.1872,0.582902 0.426983,0.881782 0.934457,1.164773 0.525808,0.293215 1.615791,0.39941 2.189098,0.21328 0.46667,-0.151508 0.831954,-0.627397 0.831954,-1.083861 0,-0.776255 -0.406656,-1.044327 -2.043191,-1.346894 -1.750737,-0.32368 -2.422537,-0.623049 -3.097353,-1.380264 -1.35743,-1.523185 -0.847751,-3.97927 1.04306,-5.026315 0.725744,-0.401884 1.374243,-0.557297 2.325456,-0.557297 1.391263,0 2.465298,0.387867 3.18917,1.151712 0.380155,0.401149 0.771734,1.072552 0.864811,1.482825 0.05925,0.261208 0.05155,0.265348 -1.057656,0.566474 l -1.117358,0.303344 -0.05479,-0.236591 c -0.08303,-0.35843 -0.624552,-0.889069 -1.047431,-1.026358 -0.917313,-0.297814 -2.024397,-0.01572 -2.313186,0.589421 -0.28675,0.600881 -0.07341,1.251878 0.488294,1.490026 0.142586,0.06045 0.839169,0.223135 1.547955,0.361516 1.491752,0.291242 2.316536,0.657001 2.936114,1.302049 0.900514,0.937535 1.118539,2.282221 0.564745,3.483127 -0.713972,1.548236 -2.439035,2.34478 -4.603313,2.125571 z"
     id="path308"
     inkscape:connector-curvature="0" /><path
     style="fill:#ffffff;stroke-width:0.09693965"
     d="m 80.021505,49.788774 v -5.600553 h 2.587934 c 2.038409,0 2.705773,0.03325 3.142952,0.156613 1.056905,0.298226 1.847293,0.980302 2.264066,1.953788 0.353375,0.825429 0.348169,1.951883 -0.01267,2.749521 -0.30838,0.681594 -0.839313,1.228138 -1.522122,1.566874 l -0.500023,0.248057 0.224058,0.421503 c 0.123226,0.231828 0.630909,1.216177 1.128188,2.187443 0.497273,0.971268 0.922714,1.799999 0.945439,1.841625 0.02275,0.04164 -0.579283,0.07467 -1.337774,0.07343 l -1.379089,-0.0022 -1.024374,-2.116257 -1.024368,-2.116257 -0.488905,-6.19e-4 -0.488905,-6.19e-4 v 2.119128 2.119129 H 81.278721 80.02154 Z m 4.708203,-0.768831 c 0.807531,-0.220341 1.251306,-1.129701 0.912166,-1.869179 -0.317136,-0.691509 -0.540682,-0.788625 -1.901835,-0.826206 l -1.204165,-0.03325 v 1.420772 1.420771 h 0.89001 c 0.489503,0 1.076225,-0.05082 1.303824,-0.112912 z"
     id="path310"
     inkscape:connector-curvature="0" /><path
     style="fill:#ffffff;stroke-width:0.09693965"
     d="m 90.637728,49.788774 v -5.600553 h 3.585301 3.585301 v 1.160475 1.160474 h -2.374684 -2.374677 v 1.11002 1.11002 h 2.188435 2.188426 v 1.059564 1.059564 h -2.188426 -2.188435 v 1.11002 1.110019 h 2.374677 2.374684 v 1.160475 1.160476 h -3.585301 -3.585301 z"
     id="path312"
     inkscape:connector-curvature="0" /><path
     style="fill:#ffffff;stroke-width:0.09693965"
     d="m 93.044684,42.901607 c 0.15441,-0.208129 0.524611,-0.66484 0.822673,-1.014914 l 0.541921,-0.636497 1.3483,0.03103 1.348301,0.03103 -1.144764,0.98388 -1.144777,0.983881 h -1.026196 -1.026197 z"
     id="path314"
     inkscape:connector-curvature="0" /><path
     style="fill:#ffffff;stroke-width:0.09693965"
     d="m 104.92919,55.574328 c -2.0069,-0.180457 -3.86912,-1.476653 -4.63568,-3.226648 -0.39263,-0.896342 -0.52956,-1.562036 -0.52956,-2.574535 0,-1.545397 0.49466,-2.817172 1.52625,-3.92401 1.18562,-1.272112 2.57874,-1.862736 4.39368,-1.862736 1.7869,0 3.12801,0.523066 4.15052,1.618797 0.48323,0.517832 1.10451,1.612876 1.10451,1.946755 0,0.09303 -0.38251,0.258276 -1.13454,0.490142 l -1.13457,0.349805 -0.22397,-0.487026 c -0.83543,-1.816665 -3.58281,-2.154392 -5.13826,-0.631633 -0.6212,0.608137 -0.87,1.236932 -0.91545,2.313713 -0.0485,1.148976 0.16529,1.842181 0.77933,2.526797 0.61522,0.685952 1.28958,0.986121 2.3295,1.036918 1.00325,0.049 1.66723,-0.123939 2.25886,-0.58835 0.33531,-0.263207 0.86117,-0.990247 0.96844,-1.338938 0.03,-0.09725 2.084,0.385964 2.32404,0.546723 0.20319,0.136069 -0.47266,1.400686 -1.13149,2.117215 -1.22978,1.33749 -2.83717,1.880738 -4.99161,1.687011 z"
     id="path316"
     inkscape:connector-curvature="0" /><path
     style="fill:#ffffff;stroke-width:0.09693965"
     d="m 113.26703,49.788774 v -5.600553 h 1.30376 1.30374 v 5.600553 5.600554 h -1.30374 -1.30376 z"
     id="path318"
     inkscape:connector-curvature="0" /><path
     style="fill:#ffffff;stroke-width:0.09693965"
     d="M 121.36888,50.949248 V 46.50917 h -1.76936 -1.76936 v -1.160474 -1.160475 h 4.79592 4.79591 v 1.160475 1.160474 h -1.81592 -1.81593 v 4.440078 4.44008 h -1.21062 -1.21064 z"
     id="path320"
     inkscape:connector-curvature="0" /><path
     style="fill:#ffffff;stroke-width:0.09693965"
     d="m 132.77667,55.616527 c -1.24727,-0.08397 -2.32916,-0.528152 -3.08032,-1.26464 -0.47807,-0.468739 -0.99322,-1.377294 -1.1042,-1.947457 l -0.0604,-0.310759 1.05156,-0.234065 c 0.57837,-0.128736 1.10395,-0.254859 1.16798,-0.280275 0.0722,-0.02866 0.11659,0.04414 0.11688,0.191636 5.8e-4,0.307292 0.34658,0.918393 0.67953,1.200297 0.55398,0.469055 1.95316,0.663655 2.60563,0.362396 0.92472,-0.426963 1.0063,-1.56699 0.14367,-2.007977 -0.1703,-0.08706 -0.83077,-0.258132 -1.46773,-0.380164 -1.37625,-0.263673 -2.00113,-0.482673 -2.55459,-0.895301 -0.86162,-0.642371 -1.26455,-1.415548 -1.26692,-2.431028 -10e-4,-0.84095 0.11453,-1.281956 0.49773,-1.884517 0.68736,-1.080815 2.04492,-1.748274 3.55586,-1.748274 1.49171,0 2.48825,0.359125 3.26422,1.176321 0.37423,0.394131 0.87129,1.310876 0.8737,1.611418 5.1e-4,0.06249 -0.49318,0.247738 -1.09706,0.411681 l -1.09797,0.29808 -0.14878,-0.377544 c -0.22593,-0.573252 -0.77078,-0.91571 -1.55345,-0.976391 -0.79461,-0.0616 -1.22121,0.08321 -1.59154,0.540246 -0.33899,0.418381 -0.375,0.897343 -0.0964,1.281254 0.23336,0.321481 0.4835,0.411019 2.00072,0.716168 2.04163,0.410616 2.96581,0.965242 3.50208,2.101689 0.32163,0.681593 0.39349,1.305714 0.22997,1.997345 -0.44391,1.877674 -2.25312,3.005855 -4.57017,2.849861 z"
     id="path322"
     inkscape:connector-curvature="0" /><path
     style="fill:#ffffff;stroke-width:0.09693965"
     d="M 125.74575,68.205009 V 62.554 h 3.58531 3.58529 v 1.160474 1.160476 h -2.37468 -2.37468 v 1.11002 1.110018 h 2.18844 2.18843 v 1.057706 1.057703 l -2.16515,0.02708 -2.16516,0.02709 -0.0263,1.135247 -0.0263,1.135248 h 2.37772 2.37772 v 1.160474 1.160475 h -3.58529 -3.58531 z"
     id="path324"
     inkscape:connector-curvature="0" /><path
     style="fill:#ffffff;stroke-width:0.09693965"
     d="M 116.1539,68.205009 V 62.554 h 1.25718 1.25719 v 4.490534 4.490534 h 2.46782 2.46779 v 1.160474 1.160475 h -3.72499 -3.72499 z"
     id="path326"
     inkscape:connector-curvature="0" /><path
     style="fill:#ffffff;stroke-width:0.09693965"
     d="M 110.75267,68.205009 V 62.554 h 1.25718 1.25718 v 5.651009 5.651008 h -1.25718 -1.25718 z"
     id="path328"
     inkscape:connector-curvature="0" /><path
     style="fill:#ffffff;stroke-width:0.09693965"
     d="M 100.41583,68.21398 V 62.554 l 1.9789,0.0018 c 2.50594,0.0022 3.43626,0.104909 4.16562,0.459602 1.72129,0.837051 2.18011,2.939589 0.93575,4.287989 -0.24851,0.269295 -0.56034,0.519136 -0.69294,0.555201 -0.33732,0.09174 -0.3007,0.194221 0.11796,0.33014 0.47465,0.154099 1.16074,0.819944 1.40251,1.361122 0.27764,0.621481 0.26631,1.661448 -0.0255,2.340456 -0.29206,0.679631 -0.99694,1.349069 -1.7441,1.656381 -0.57401,0.236095 -0.70534,0.247266 -3.36776,0.286477 l -2.77046,0.0408 z m 4.99067,3.417538 c 0.64723,-0.339514 0.87298,-1.132197 0.50745,-1.781809 -0.3073,-0.54614 -0.65326,-0.674491 -1.93611,-0.718299 l -1.14077,-0.03896 v 1.372672 1.372674 h 1.08809 c 0.90561,0 1.15405,-0.03459 1.48134,-0.206281 z m -0.3835,-4.636412 c 0.45562,-0.187708 0.70094,-0.58443 0.70094,-1.133545 0,-0.918827 -0.59315,-1.28776 -2.07202,-1.288781 l -0.81485,-5.63e-4 v 1.261386 1.261385 h 0.97175 c 0.53446,0 1.08084,-0.04494 1.21418,-0.09989 z"
     id="path330"
     inkscape:connector-curvature="0" /><path
     style="fill:#ffffff;stroke-width:0.09693965"
     d="m 90.777414,73.914805 c -1.314783,-0.329518 -2.395083,-0.965853 -3.208396,-1.889865 -1.423687,-1.617451 -1.76508,-4.186421 -0.838197,-6.307482 0.422619,-0.96713 1.487928,-2.104073 2.427425,-2.590656 3.603625,-1.866388 7.892961,-0.09966 8.786864,3.619192 0.18269,0.760019 0.18282,2.157491 2.8e-4,2.916945 -0.4561,1.897534 -1.832342,3.397278 -3.72234,4.056402 -0.924176,0.322299 -2.567572,0.415526 -3.445623,0.195464 z M 93.715093,71.3188 c 0.284043,-0.142031 0.66344,-0.398103 0.843108,-0.569048 0.991038,-0.94289 1.256021,-2.928412 0.572457,-4.289361 -0.304197,-0.60563 -0.743456,-1.031813 -1.415565,-1.373417 -0.458376,-0.23297 -0.631816,-0.262479 -1.542765,-0.262479 -0.972072,0 -1.059195,0.01753 -1.648068,0.331668 -1.152662,0.614899 -1.698687,1.594925 -1.698687,3.048846 0,1.318795 0.476729,2.29937 1.404268,2.888391 0.686689,0.436071 1.120937,0.542739 2.084131,0.511934 0.716038,-0.0229 0.983131,-0.07753 1.401121,-0.286534 z"
     id="path332"
     inkscape:connector-curvature="0" /><path
     style="fill:#ffffff;stroke-width:0.09693965"
     d="M 70.988402,68.205009 V 62.554 h 1.616188 1.616179 l 1.558196,3.758929 c 0.857004,2.067412 1.591215,3.796416 1.631587,3.842231 0.04039,0.04582 0.75463,-1.645703 1.587233,-3.758929 L 80.511635,62.554 h 1.71056 1.710544 v 5.651009 5.651008 h -1.210616 -1.210624 v -3.753884 c 0,-2.182347 -0.03456,-3.713751 -0.08241,-3.65802 -0.04536,0.05272 -0.696965,1.631288 -1.448082,3.507915 -0.751117,1.876627 -1.412202,3.522736 -1.469084,3.65802 -0.100238,0.238375 -0.134191,0.245969 -1.099732,0.245969 H 76.415897 L 74.9507,70.248454 c -0.805854,-1.98416 -1.503214,-3.650704 -1.549677,-3.703429 -0.05062,-0.05745 -0.0845,1.387809 -0.0845,3.607564 v 3.703428 H 72.15247 70.988403 Z"
     id="path334"
     inkscape:connector-curvature="0" /><path
     style="fill:#ffffff;stroke-width:0.09693965"
     d="m 114.92125,37.128086 c -3.43733,-0.68124 -5.44127,-3.799365 -4.63557,-7.212971 0.10164,-0.430833 0.31036,-1.020977 0.46371,-1.311431 1.2154,-2.301892 3.92422,-3.503906 6.63023,-2.942104 2.91185,0.604539 4.79311,3.084034 4.60926,6.074957 -0.19075,3.102899 -2.48649,5.313795 -5.64873,5.439958 -0.53779,0.02145 -1.1763,-3.02e-4 -1.4189,-0.04841 z m 2.68702,-2.666598 c 0.6797,-0.332876 1.25134,-0.934595 1.54445,-1.625741 0.17917,-0.422452 0.21335,-0.668756 0.21004,-1.513662 -0.003,-0.856165 -0.038,-1.084936 -0.22889,-1.509406 -1.15059,-2.559128 -4.98238,-2.559128 -6.1494,0 -0.19812,0.434422 -0.22826,0.639809 -0.22889,1.559861 -5.7e-4,0.954841 0.0238,1.109432 0.24731,1.564118 0.42418,0.86282 1.20785,1.520019 2.10192,1.762723 0.19287,0.05236 0.70685,0.08302 1.14222,0.06814 0.62936,-0.0215 0.9083,-0.08421 1.36124,-0.30604 z"
     id="path336"
     inkscape:connector-curvature="0" /><path
     style="fill:#ffffff;stroke-width:0.09693965"
     d="m 124.25575,31.37254 v -5.65101 h 1.25719 1.25718 v 5.65101 5.651008 h -1.25718 -1.25719 z"
     id="path338"
     inkscape:connector-curvature="0" /><path
     style="fill:#ffffff;stroke-width:0.09693965"
     d="m 129.65698,31.37254 v -5.65101 l 2.44453,0.0017 c 2.60618,0.0019 3.32944,0.09108 4.07359,0.502462 0.59653,0.329768 1.17934,0.968505 1.46036,1.600499 0.34639,0.77899 0.36415,1.931377 0.0417,2.710125 -0.25266,0.610343 -0.92882,1.338863 -1.54247,1.661925 -0.23357,0.122964 -0.42466,0.259126 -0.42466,0.302582 0,0.04346 0.50287,1.056936 1.11749,2.252179 0.61463,1.195241 1.1175,2.196279 1.1175,2.224528 0,0.02824 -0.61086,0.0388 -1.35748,0.02344 l -1.35747,-0.02792 -1.02455,-2.093901 -1.02454,-2.0939 h -0.50484 -0.50485 v 2.119128 2.119128 h -1.25719 -1.25718 z m 4.99821,-0.901959 c 0.67608,-0.33263 0.94732,-1.131797 0.61744,-1.819202 -0.29087,-0.606141 -0.65811,-0.755221 -1.9605,-0.795869 l -1.14078,-0.0356 v 1.423127 1.42313 l 1.04767,-0.0022 c 0.82615,-0.0017 1.12979,-0.04264 1.43617,-0.193367 z"
     id="path340"
     inkscape:connector-curvature="0" /><path
     style="fill:#ffffff;stroke-width:0.09693965"
     d="m 140.27321,31.37254 v -5.65101 h 3.58531 3.58529 v 1.160476 1.160474 h -2.37468 -2.37468 v 1.110021 1.11002 h 2.18844 2.18842 v 1.057704 1.057703 l -2.16515,0.0271 -2.16515,0.02709 v 1.110019 1.11002 l 2.39796,0.02694 2.39798,0.02692 v 1.158772 1.158772 h -3.63188 -3.63186 z"
     id="path342"
     inkscape:connector-curvature="0" /><path
     style="fill:none;stroke-width:0.19387932"
     d="m 45.928709,32.295229 c 0,-0.07212 0.268551,-0.897227 0.596778,-1.833564 l 0.596777,-1.702429 0.60666,1.682197 c 0.333663,0.925209 0.609893,1.750312 0.613844,1.833564 0.0039,0.08325 -0.537595,0.151367 -1.203437,0.151367 -0.665842,0 -1.210622,-0.05902 -1.210622,-0.131135 z"
     id="path82"
     inkscape:connector-curvature="0" /></svg>