<?xml version="1.0" encoding="UTF-8" standalone="no"?>
<!-- Generator: Adobe Illustrator 17.0.0, SVG Export Plug-In . SVG Version: 6.00 Build 0)  -->

<svg
   xmlns:dc="http://purl.org/dc/elements/1.1/"
   xmlns:cc="http://creativecommons.org/ns#"
   xmlns:rdf="http://www.w3.org/1999/02/22-rdf-syntax-ns#"
   xmlns:svg="http://www.w3.org/2000/svg"
   xmlns="http://www.w3.org/2000/svg"
   xmlns:sodipodi="http://sodipodi.sourceforge.net/DTD/sodipodi-0.dtd"
   xmlns:inkscape="http://www.inkscape.org/namespaces/inkscape"
   version="1.1"
   id="Layer_1"
   x="0px"
   y="0px"
   width="275"
   height="275"
   viewBox="0 0 275 275"
   enable-background="new 0 0 792 612"
   xml:space="preserve"
   sodipodi:docname="LOGO-LRSM.svg"
   inkscape:version="0.92.2 (5c3e80d, 2017-08-06)"><metadata
     id="metadata9"><rdf:RDF><cc:Work
         rdf:about=""><dc:format>image/svg+xml</dc:format><dc:type
           rdf:resource="http://purl.org/dc/dcmitype/StillImage" /><dc:title></dc:title></cc:Work></rdf:RDF></metadata><defs
     id="defs7" /><sodipodi:namedview
     pagecolor="#ffffff"
     bordercolor="#666666"
     borderopacity="1"
     objecttolerance="10"
     gridtolerance="10"
     guidetolerance="10"
     inkscape:pageopacity="0"
     inkscape:pageshadow="2"
     inkscape:window-width="1920"
     inkscape:window-height="1017"
     id="namedview5"
     showgrid="false"
     inkscape:zoom="0.77124183"
     inkscape:cx="537.96754"
     inkscape:cy="265.78544"
     inkscape:window-x="1072"
     inkscape:window-y="-8"
     inkscape:window-maximized="1"
     inkscape:current-layer="Layer_1" /><path
     d="m 233.94174,240.28171 v -100.018 l -23.895,10.679 -38.225,-64.900999 h 1.179 c 20.706,0 37.55,-16.844 37.55,-37.549999 0,-20.706001 -16.844,-37.550001 -37.55,-37.550001 H 117.35175 V 124.22171 H 53.860746 V 33.720711 c 5.103,-1.656 8.828,-6.4 8.828,-12.048 0,-7.015 -5.707,-12.7239995 -12.722,-12.7239995 -7.015,0 -12.724,5.7089995 -12.724,12.7239995 0,5.648 3.725,10.392 8.829,12.048 v 98.290999 h 67.349004 c -0.645,1.523 -1.003,3.196 -1.003,4.951 0,4.068 1.954,7.654 4.934,9.985 v 11.859 H 52.522746 c -15.457,0 -28.031,12.929 -28.031,28.823 0,15.893 12.575,28.823 28.031,28.823 h 17.676 c 7.972,0 14.217,6.859 14.217,15.616 0,8.29 -6.127,15.091 -13.835,15.587 h -24.896 v 15.58 l 23.993,0.029 c 16.716,0 30.317,-13.994 30.317,-31.196 0,-17.494 -13.088,-31.196 -29.796,-31.196 h -17.676 c -6.866,0 -12.452,-5.941 -12.452,-13.243 0,-7.302 5.585,-13.243 12.452,-13.243 h 64.829004 v 88.642 h 15.57999 v -108.735 l 36.873,16.245 v 92.49 h 15.58 v -92.531 l 40.768,-18.221 v 88.004 c -5.104,1.656 -8.829,6.4 -8.829,12.048 0,7.015 5.709,12.724 12.724,12.724 7.015,0 12.724,-5.709 12.724,-12.724 -0.001,-5.647 -3.725,-10.391 -8.83,-12.047 z M 49.966746,16.739711 c 2.72,0 4.933,2.214 4.933,4.934 0,2.72 -2.212,4.933 -4.933,4.933 -2.721,0 -4.934,-2.212 -4.934,-4.933 0,-2.721 2.214,-4.934 4.934,-4.934 z m 82.965994,9.783 h 40.069 c 12.114,0 21.97,9.856 21.97,21.970001 0,12.114 -9.856,21.969999 -21.97,21.969999 h -40.069 z m 20.807,59.519 41.994,71.297999 -18.15,8.111 -43.73,-19.264 c 2.457,-2.321 4.012,-5.585 4.012,-9.224 0,-4.068 -1.954,-7.654 -4.934,-9.985 V 86.041711 Z m -23.663,50.921999 c 0,2.72 -2.214,4.933 -4.934,4.933 -0.668,0 -1.305,-0.137 -1.888,-0.378 l -0.07,-0.031 c -1.74799,-0.76 -2.97599,-2.499 -2.97599,-4.523 0,-2.72 2.21399,-4.934 4.93399,-4.934 2.72,0 4.934,2.213 4.934,4.933 z m 99.97,120.301 c -2.72,0 -4.934,-2.214 -4.934,-4.934 0,-2.72 2.214,-4.933 4.934,-4.933 2.72,0 4.934,2.212 4.934,4.933 0,2.721 -2.213,4.934 -4.934,4.934 z"
     id="path2"
     inkscape:connector-curvature="0" /></svg>