<?xml version="1.0" encoding="UTF-8" standalone="no"?>
<!-- Generator: Adobe Illustrator 17.0.0, SVG Export Plug-In . SVG Version: 6.00 Build 0)  -->

<svg
   xmlns:dc="http://purl.org/dc/elements/1.1/"
   xmlns:cc="http://creativecommons.org/ns#"
   xmlns:rdf="http://www.w3.org/1999/02/22-rdf-syntax-ns#"
   xmlns:svg="http://www.w3.org/2000/svg"
   xmlns="http://www.w3.org/2000/svg"
   xmlns:sodipodi="http://sodipodi.sourceforge.net/DTD/sodipodi-0.dtd"
   xmlns:inkscape="http://www.inkscape.org/namespaces/inkscape"
   version="1.1"
   id="Layer_1"
   x="0px"
   y="0px"
   width="375"
   height="275"
   viewBox="0 0 375 275"
   enable-background="new 0 0 792 612"
   xml:space="preserve"
   sodipodi:docname="LOGO-LRSM-avec-texte.svg"
   inkscape:version="0.92.2 (5c3e80d, 2017-08-06)"><metadata
     id="metadata337"><rdf:RDF><cc:Work
         rdf:about=""><dc:format>image/svg+xml</dc:format><dc:type
           rdf:resource="http://purl.org/dc/dcmitype/StillImage" /><dc:title></dc:title></cc:Work></rdf:RDF></metadata><defs
     id="defs335" /><sodipodi:namedview
     pagecolor="#ffffff"
     bordercolor="#666666"
     borderopacity="1"
     objecttolerance="10"
     gridtolerance="10"
     guidetolerance="10"
     inkscape:pageopacity="0"
     inkscape:pageshadow="2"
     inkscape:window-width="1920"
     inkscape:window-height="1017"
     id="namedview333"
     showgrid="false"
     inkscape:zoom="1.0907007"
     inkscape:cx="508.15046"
     inkscape:cy="202.5771"
     inkscape:window-x="1072"
     inkscape:window-y="-8"
     inkscape:window-maximized="1"
     inkscape:current-layer="Layer_1" /><path
     d="m 134.19606,205.88063 v -58.209 l -13.906,6.215 -22.247,-37.772 h 0.686 c 12.05,0 21.854,-9.803 21.854,-21.853996 0,-12.05 -9.803,-21.854 -21.854,-21.854 h -32.387 v 65.927996 h -36.951 V 85.663634 c 2.97,-0.964 5.138,-3.725 5.138,-7.012 0,-4.083 -3.321,-7.405 -7.404,-7.405 -4.083,0 -7.405,3.322 -7.405,7.405 0,3.287 2.168,6.048 5.138,7.012 v 57.203996 h 39.196 c -0.375,0.886 -0.584,1.86 -0.584,2.881 0,2.367 1.137,4.455 2.872,5.811 v 6.902 h -37.73 c -8.996,0 -16.314,7.525 -16.314,16.774 0,9.25 7.318,16.774 16.314,16.774 h 10.287 c 4.64,0 8.274,3.992 8.274,9.089 0,4.825 -3.566,8.783 -8.052,9.072 h -14.489 v 9.067 l 13.964,0.017 c 9.729,0 17.644,-8.145 17.644,-18.156 0,-10.181 -7.617,-18.156 -17.341,-18.156 h -10.287 c -3.996,0 -7.247,-3.458 -7.247,-7.707 0,-4.249 3.251,-7.707 7.247,-7.707 h 37.73 v 51.589 h 9.067 v -63.283 l 21.46,9.454 v 53.829 h 9.067 v -53.852 l 23.726,-10.604 v 51.218 c -2.971,0.964 -5.138,3.725 -5.138,7.012 0,4.083 3.322,7.405 7.405,7.405 4.083,0 7.405,-3.322 7.405,-7.405 0,-3.286 -2.167,-6.047 -5.138,-7.011 z M 27.12406,75.781634 c 1.583,0 2.871,1.288 2.871,2.872 0,1.583 -1.287,2.871 -2.871,2.871 -1.583,0 -2.872,-1.287 -2.872,-2.871 0.001,-1.584 1.289,-2.872 2.872,-2.872 z m 48.285,5.693 h 23.32 c 7.05,0 12.786,5.736 12.786,12.786 0,7.049996 -5.736,12.785996 -12.786,12.785996 h -23.32 z m 12.11,34.639996 24.44,41.495 -10.563,4.721 -25.45,-11.211 c 1.43,-1.351 2.335,-3.251 2.335,-5.368 0,-2.367 -1.137,-4.455 -2.872,-5.811 v -23.825 h 12.11 z m -13.772,29.636 c 0,1.583 -1.288,2.871 -2.872,2.871 -0.389,0 -0.76,-0.079 -1.099,-0.22 l -0.041,-0.018 c -1.017,-0.442 -1.732,-1.454 -1.732,-2.633 0,-1.583 1.288,-2.872 2.872,-2.872 1.584,0.001 2.872,1.289 2.872,2.872 z m 58.182,70.014 c -1.583,0 -2.872,-1.288 -2.872,-2.872 0,-1.583 1.288,-2.871 2.872,-2.871 1.583,0 2.872,1.287 2.872,2.871 0,1.583 -1.289,2.872 -2.872,2.872 z"
     id="path256"
     inkscape:connector-curvature="0" /><g
     id="g330"
     transform="translate(-209.03994,-160.96637)"><path
       d="m 369.634,249.283 v -16.715 h 3.724 v 13.156 h 7.215 v 3.56 h -10.939 z"
       id="path258"
       inkscape:connector-curvature="0" /><path
       d="m 383.449,249.283 v -16.715 h 10.585 v 3.513 h -6.861 v 3.182 h 6.225 v 3.277 h -6.225 v 3.206 h 6.885 v 3.537 z"
       id="path260"
       inkscape:connector-curvature="0" /><path
       d="m 403.937,249.283 v -16.715 h 3.724 v 13.156 h 7.215 v 3.56 h -10.939 z"
       id="path262"
       inkscape:connector-curvature="0" /><path
       d="m 427.797,245.888 h -6.46 l -1.202,3.395 h -3.914 l 6.296,-16.715 h 4.314 l 6.223,16.715 h -4.055 z m -5.235,-3.395 h 4.055 l -2.005,-5.776 z"
       id="path264"
       inkscape:connector-curvature="0" /><path
       d="m 441.823,232.567 c 3.301,0 5.21,1.91 5.21,4.48 0,1.72 -1.084,3.135 -2.453,3.584 1.509,0.353 2.972,1.744 2.972,3.913 0,2.735 -2.076,4.739 -5.235,4.739 h -6.742 v -16.715 h 6.248 z m -0.59,6.695 c 1.296,0 2.145,-0.684 2.145,-1.815 0,-1.084 -0.73,-1.791 -2.192,-1.791 h -1.98 v 3.607 h 2.027 z m 0.307,6.979 c 1.438,0 2.311,-0.754 2.311,-1.956 0,-1.156 -0.848,-1.957 -2.311,-1.957 h -2.334 v 3.913 z"
       id="path266"
       inkscape:connector-curvature="0" /><path
       d="m 458.325,232.214 c 4.691,0 8.676,3.418 8.676,8.723 0,5.281 -3.985,8.699 -8.676,8.699 -4.716,0 -8.701,-3.418 -8.701,-8.699 0,-5.305 3.985,-8.723 8.701,-8.723 z m 0,13.744 c 2.309,0 4.808,-1.556 4.808,-5.045 0,-3.489 -2.499,-5.068 -4.808,-5.068 -2.334,0 -4.835,1.58 -4.835,5.068 0,3.49 2.501,5.045 4.835,5.045 z"
       id="path268"
       inkscape:connector-curvature="0" /><path
       d="m 475.181,243.059 h -1.321 v 6.224 h -3.724 v -16.715 h 6.625 c 3.301,0 5.423,2.263 5.423,5.234 0,2.263 -1.25,3.984 -3.301,4.715 l 3.395,6.766 h -4.102 z m 0.871,-3.207 c 1.534,0 2.359,-0.848 2.359,-2.028 0,-1.249 -0.825,-2.028 -2.359,-2.028 h -2.192 v 4.055 h 2.192 z"
       id="path270"
       inkscape:connector-curvature="0" /><path
       d="m 495.384,245.888 h -6.46 l -1.202,3.395 h -3.914 l 6.296,-16.715 h 4.314 l 6.223,16.715 h -4.055 z m -5.235,-3.395 h 4.055 l -2.005,-5.776 z"
       id="path272"
       inkscape:connector-curvature="0" /><path
       d="m 509.126,236.127 v 13.156 h -3.724 v -13.156 h -5.139 v -3.56 h 14.028 v 3.56 z"
       id="path274"
       inkscape:connector-curvature="0" /><path
       d="m 524.38,232.214 c 4.691,0 8.676,3.418 8.676,8.723 0,5.281 -3.985,8.699 -8.676,8.699 -4.716,0 -8.701,-3.418 -8.701,-8.699 0,-5.305 3.985,-8.723 8.701,-8.723 z m 0,13.744 c 2.309,0 4.808,-1.556 4.808,-5.045 0,-3.489 -2.499,-5.068 -4.808,-5.068 -2.334,0 -4.833,1.58 -4.833,5.068 0,3.49 2.498,5.045 4.833,5.045 z"
       id="path276"
       inkscape:connector-curvature="0" /><path
       d="m 536.19,249.283 v -16.715 h 3.772 v 16.715 z"
       id="path278"
       inkscape:connector-curvature="0" /><path
       d="m 549.086,243.059 h -1.321 v 6.224 h -3.724 v -16.715 h 6.625 c 3.301,0 5.423,2.263 5.423,5.234 0,2.263 -1.25,3.984 -3.301,4.715 l 3.395,6.766 h -4.102 z m 0.871,-3.207 c 1.534,0 2.359,-0.848 2.359,-2.028 0,-1.249 -0.825,-2.028 -2.359,-2.028 h -2.192 v 4.055 h 2.192 z"
       id="path280"
       inkscape:connector-curvature="0" /><path
       d="m 559.317,249.283 v -16.715 h 10.585 v 3.513 h -6.861 v 3.182 h 6.225 v 3.277 h -6.225 v 3.206 h 6.885 v 3.537 z"
       id="path282"
       inkscape:connector-curvature="0" /><path
       d="m 377.791,264.815 c -0.117,-0.778 -0.754,-2.099 -2.782,-2.099 -1.39,0 -2.286,0.872 -2.286,1.791 0,0.802 0.496,1.391 1.651,1.604 l 2.24,0.424 c 3.182,0.59 4.833,2.64 4.833,5.022 0,2.617 -2.192,5.281 -6.177,5.281 -4.62,0 -6.602,-2.994 -6.838,-5.351 l 3.418,-0.825 c 0.142,1.532 1.179,2.876 3.466,2.876 1.463,0 2.359,-0.707 2.359,-1.744 0,-0.849 -0.684,-1.462 -1.792,-1.674 l -2.286,-0.424 c -2.83,-0.542 -4.551,-2.428 -4.551,-4.904 0,-3.159 2.782,-5.375 5.989,-5.375 4.172,0 5.752,2.499 6.106,4.456 z"
       id="path284"
       inkscape:connector-curvature="0" /><path
       d="m 384.297,270.449 v -10.68 h 3.726 v 10.373 c 0,2.028 1.132,3.041 2.899,3.041 1.767,0 2.899,-1.013 2.899,-3.041 v -10.373 h 3.726 v 10.68 c 0,4.196 -2.947,6.413 -6.625,6.413 -3.678,0 -6.625,-2.217 -6.625,-6.413 z"
       id="path286"
       inkscape:connector-curvature="0" /><path
       d="m 406.553,270.26 h -1.321 v 6.224 h -3.724 v -16.715 h 6.625 c 3.301,0 5.423,2.263 5.423,5.234 0,2.263 -1.25,3.984 -3.301,4.715 l 3.395,6.766 h -4.102 z m 0.871,-3.206 c 1.534,0 2.359,-0.848 2.359,-2.028 0,-1.249 -0.825,-2.028 -2.359,-2.028 h -2.192 v 4.055 h 2.192 z"
       id="path288"
       inkscape:connector-curvature="0" /><path
       d="m 423.056,276.484 v -16.715 h 3.724 v 13.156 h 7.215 v 3.56 h -10.939 z"
       id="path290"
       inkscape:connector-curvature="0" /><path
       d="m 436.872,276.484 v -16.715 h 10.585 v 3.513 h -6.861 v 3.182 h 6.225 v 3.277 h -6.225 v 3.206 h 6.885 v 3.537 z"
       id="path292"
       inkscape:connector-curvature="0" /><path
       d="m 459.244,264.815 c -0.117,-0.778 -0.754,-2.099 -2.782,-2.099 -1.39,0 -2.286,0.872 -2.286,1.791 0,0.802 0.496,1.391 1.651,1.604 l 2.24,0.424 c 3.182,0.59 4.833,2.64 4.833,5.022 0,2.617 -2.192,5.281 -6.177,5.281 -4.62,0 -6.602,-2.994 -6.838,-5.351 l 3.418,-0.825 c 0.142,1.532 1.179,2.876 3.466,2.876 1.463,0 2.359,-0.707 2.359,-1.744 0,-0.849 -0.684,-1.462 -1.792,-1.674 l -2.286,-0.424 c -2.83,-0.542 -4.551,-2.428 -4.551,-4.904 0,-3.159 2.782,-5.375 5.989,-5.375 4.172,0 5.752,2.499 6.106,4.456 z"
       id="path294"
       inkscape:connector-curvature="0" /><path
       d="m 477.233,270.26 h -1.321 v 6.224 h -3.724 v -16.715 h 6.625 c 3.301,0 5.423,2.263 5.423,5.234 0,2.263 -1.25,3.984 -3.301,4.715 l 3.395,6.766 h -4.102 z m 0.873,-3.206 c 1.532,0 2.357,-0.848 2.357,-2.028 0,-1.249 -0.825,-2.028 -2.357,-2.028 h -2.194 v 4.055 h 2.194 z"
       id="path296"
       inkscape:connector-curvature="0" /><path
       d="m 487.464,276.484 v -16.715 h 10.585 v 3.513 h -6.861 v 3.182 h 6.225 v 3.277 h -6.225 v 3.206 h 6.885 v 3.537 z m 6.177,-17.893 h -3.182 l 2.451,-3.112 h 4.268 z"
       id="path298"
       inkscape:connector-curvature="0" /><path
       d="m 500.69,268.162 c 0,-5.21 3.962,-8.746 8.63,-8.746 5.021,0 7.238,3.229 7.78,5.634 l -3.514,1.108 c -0.259,-1.155 -1.319,-3.112 -4.266,-3.112 -2.24,0 -4.762,1.603 -4.762,5.115 0,3.135 2.309,4.952 4.808,4.952 2.901,0 4.055,-1.934 4.385,-3.135 l 3.561,1.013 c -0.544,2.311 -2.759,5.847 -7.946,5.847 -4.809,0 -8.676,-3.465 -8.676,-8.676 z"
       id="path300"
       inkscape:connector-curvature="0" /><path
       d="m 520.329,276.484 v -16.715 h 3.772 v 16.715 z"
       id="path302"
       inkscape:connector-curvature="0" /><path
       d="m 535.675,263.329 v 13.156 h -3.724 v -13.156 h -5.139 v -3.56 h 14.028 v 3.56 z"
       id="path304"
       inkscape:connector-curvature="0" /><path
       d="m 551.728,264.815 c -0.117,-0.778 -0.754,-2.099 -2.782,-2.099 -1.39,0 -2.286,0.872 -2.286,1.791 0,0.802 0.496,1.391 1.651,1.604 l 2.24,0.424 c 3.182,0.59 4.833,2.64 4.833,5.022 0,2.617 -2.192,5.281 -6.177,5.281 -4.622,0 -6.602,-2.994 -6.838,-5.351 l 3.418,-0.825 c 0.142,1.532 1.179,2.876 3.466,2.876 1.463,0 2.359,-0.707 2.359,-1.744 0,-0.849 -0.684,-1.462 -1.792,-1.674 l -2.286,-0.424 c -2.83,-0.542 -4.551,-2.428 -4.551,-4.904 0,-3.159 2.782,-5.375 5.989,-5.375 4.172,0 5.752,2.499 6.106,4.456 z"
       id="path306"
       inkscape:connector-curvature="0" /><path
       d="m 369.634,303.686 v -16.715 h 6.058 c 5.022,0 8.394,3.206 8.394,8.37 0,5.164 -3.372,8.346 -8.417,8.346 h -6.035 z m 5.894,-3.513 c 2.57,0 4.668,-1.485 4.668,-4.833 0,-3.348 -2.099,-4.857 -4.668,-4.857 h -2.169 v 9.69 z"
       id="path308"
       inkscape:connector-curvature="0" /><path
       d="m 387.078,297.651 v -10.68 h 3.726 v 10.373 c 0,2.028 1.132,3.041 2.899,3.041 1.767,0 2.899,-1.013 2.899,-3.041 v -10.373 h 3.726 v 10.68 c 0,4.196 -2.947,6.413 -6.625,6.413 -3.678,-0.001 -6.625,-2.217 -6.625,-6.413 z"
       id="path310"
       inkscape:connector-curvature="0" /><path
       d="m 418.718,292.016 c -0.117,-0.778 -0.754,-2.099 -2.782,-2.099 -1.39,0 -2.286,0.872 -2.286,1.791 0,0.802 0.496,1.391 1.651,1.604 l 2.24,0.424 c 3.182,0.59 4.833,2.64 4.833,5.022 0,2.617 -2.192,5.281 -6.177,5.281 -4.62,0 -6.602,-2.994 -6.838,-5.351 l 3.418,-0.825 c 0.142,1.532 1.179,2.876 3.466,2.876 1.463,0 2.359,-0.708 2.359,-1.744 0,-0.849 -0.684,-1.462 -1.792,-1.674 l -2.286,-0.424 c -2.83,-0.542 -4.551,-2.428 -4.551,-4.904 0,-3.159 2.782,-5.375 5.989,-5.375 4.172,0 5.752,2.499 6.106,4.456 z"
       id="path312"
       inkscape:connector-curvature="0" /><path
       d="m 433.099,286.618 c 4.691,0 8.676,3.418 8.676,8.723 0,5.281 -3.985,8.699 -8.676,8.699 -4.716,0 -8.701,-3.418 -8.701,-8.699 10e-4,-5.305 3.985,-8.723 8.701,-8.723 z m 0,13.744 c 2.309,0 4.808,-1.556 4.808,-5.045 0,-3.489 -2.499,-5.068 -4.808,-5.068 -2.334,0 -4.835,1.58 -4.835,5.068 10e-4,3.489 2.501,5.045 4.835,5.045 z"
       id="path314"
       inkscape:connector-curvature="0" /><path
       d="m 444.908,303.686 v -16.715 h 3.772 v 16.715 z"
       id="path316"
       inkscape:connector-curvature="0" /><path
       d="m 474.31,303.686 v -11.081 l -4.362,11.081 h -3.018 l -4.362,-10.939 v 10.939 h -3.537 v -16.715 h 4.856 l 4.597,11.292 4.362,-11.292 h 5.116 v 16.715 z"
       id="path318"
       inkscape:connector-curvature="0" /><path
       d="m 489.796,286.618 c 4.691,0 8.676,3.418 8.676,8.723 0,5.281 -3.985,8.699 -8.676,8.699 -4.716,0 -8.701,-3.418 -8.701,-8.699 10e-4,-5.305 3.985,-8.723 8.701,-8.723 z m 0,13.744 c 2.309,0 4.808,-1.556 4.808,-5.045 0,-3.489 -2.499,-5.068 -4.808,-5.068 -2.334,0 -4.833,1.58 -4.833,5.068 10e-4,3.489 2.499,5.045 4.833,5.045 z"
       id="path320"
       inkscape:connector-curvature="0" /><path
       d="m 507.853,286.971 c 3.301,0 5.21,1.91 5.21,4.48 0,1.72 -1.084,3.135 -2.453,3.584 1.509,0.353 2.972,1.744 2.972,3.913 0,2.735 -2.076,4.739 -5.235,4.739 h -6.742 v -16.715 h 6.248 z m -0.59,6.695 c 1.296,0 2.146,-0.684 2.146,-1.815 0,-1.084 -0.731,-1.791 -2.194,-1.791 h -1.98 v 3.607 h 2.028 z m 0.307,6.979 c 1.438,0 2.311,-0.754 2.311,-1.956 0,-1.156 -0.85,-1.957 -2.311,-1.957 h -2.334 v 3.913 z"
       id="path322"
       inkscape:connector-curvature="0" /><path
       d="m 516.621,303.686 v -16.715 h 3.772 v 16.715 z"
       id="path324"
       inkscape:connector-curvature="0" /><path
       d="m 524.472,303.686 v -16.715 h 3.724 v 13.156 h 7.215 v 3.56 h -10.939 z"
       id="path326"
       inkscape:connector-curvature="0" /><path
       d="m 538.287,303.686 v -16.715 h 10.585 v 3.513 h -6.861 v 3.182 h 6.225 v 3.277 h -6.225 v 3.206 h 6.885 v 3.537 z"
       id="path328"
       inkscape:connector-curvature="0" /></g></svg>