<?xml version="1.0" encoding="UTF-8" standalone="no"?>
<!-- Generator: Adobe Illustrator 17.0.0, SVG Export Plug-In . SVG Version: 6.00 Build 0)  -->

<svg
   xmlns:dc="http://purl.org/dc/elements/1.1/"
   xmlns:cc="http://creativecommons.org/ns#"
   xmlns:rdf="http://www.w3.org/1999/02/22-rdf-syntax-ns#"
   xmlns:svg="http://www.w3.org/2000/svg"
   xmlns="http://www.w3.org/2000/svg"
   xmlns:sodipodi="http://sodipodi.sourceforge.net/DTD/sodipodi-0.dtd"
   xmlns:inkscape="http://www.inkscape.org/namespaces/inkscape"
   version="1.1"
   id="Layer_1"
   x="0px"
   y="0px"
   width="275"
   height="275"
   viewBox="0 0 275 275"
   enable-background="new 0 0 792 612"
   xml:space="preserve"
   sodipodi:docname="LOGO-LRSM-INVERSE.svg"
   inkscape:version="0.92.2 (5c3e80d, 2017-08-06)"><metadata
     id="metadata9"><rdf:RDF><cc:Work
         rdf:about=""><dc:format>image/svg+xml</dc:format><dc:type
           rdf:resource="http://purl.org/dc/dcmitype/StillImage" /><dc:title /></cc:Work></rdf:RDF></metadata><defs
     id="defs7" /><sodipodi:namedview
     pagecolor="#ffffff"
     bordercolor="#666666"
     borderopacity="1"
     objecttolerance="10"
     gridtolerance="10"
     guidetolerance="10"
     inkscape:pageopacity="0"
     inkscape:pageshadow="2"
     inkscape:window-width="1920"
     inkscape:window-height="1017"
     id="namedview5"
     showgrid="false"
     inkscape:zoom="1.5424837"
     inkscape:cx="329.74732"
     inkscape:cy="135.30955"
     inkscape:window-x="1072"
     inkscape:window-y="-8"
     inkscape:window-maximized="1"
     inkscape:current-layer="Layer_1" /><path
     d="m 217.93238,220.99734 v -81.02898 l -19.84974,8.65153 -31.75375,-52.579149 h 0.9794 c 17.20061,0 31.19303,-13.646068 31.19303,-30.420911 0,-16.774843 -13.99242,-30.420908 -31.19303,-30.420908 H 121.08031 V 126.97203 H 68.337916 V 53.653191 c 4.239095,-1.341598 7.333477,-5.184921 7.333477,-9.760615 0,-5.68316 -4.740842,-10.308271 -10.568248,-10.308271 -5.827405,0 -10.569908,4.625111 -10.569908,10.308271 0,4.575694 3.094381,8.419017 7.334307,9.760615 v 79.629869 h 55.947266 c -0.53581,1.23384 -0.83321,2.58921 -0.83321,4.01102 0,3.29566 1.62321,6.20084 4.09871,8.08928 v 9.6075 H 67.226432 c -12.840231,0 -23.285534,10.47436 -23.285534,23.35078 0,12.87562 10.446134,23.35078 23.285534,23.35078 H 81.91 c 6.622392,0 11.810153,5.55678 11.810153,12.65121 0,6.7161 -5.089739,12.22588 -11.492825,12.62771 H 61.54606 v 12.62205 l 19.931141,0.0235 c 13.886089,0 25.184529,-11.33716 25.184529,-25.27326 0,-14.17266 -10.872287,-25.27326 -24.75173,-25.27326 H 67.226432 c -5.703631,0 -10.343957,-4.81305 -10.343957,-10.72873 0,-5.91567 4.639495,-10.72873 10.343957,-10.72873 h 53.853878 v 71.81278 h 12.9424 v -88.09101 l 30.63064,13.16079 v 74.93022 h 12.94241 V 164.46225 L 211.462,149.70062 v 71.29591 c -4.23993,1.34161 -7.33431,5.18492 -7.33431,9.76062 0,5.68316 4.74251,10.30827 10.56991,10.30827 5.82741,0 10.56991,-4.62511 10.56991,-10.30827 -8.3e-4,-4.57489 -3.09438,-8.41821 -7.33513,-9.75981 z M 65.103145,39.896136 c 2.259522,0 4.097875,1.793659 4.097875,3.997251 0,2.203592 -1.837522,3.99644 -4.097875,3.99644 -2.260352,0 -4.098705,-1.792038 -4.098705,-3.99644 0,-2.204403 1.839184,-3.997251 4.098705,-3.997251 z m 68.920395,7.925639 h 33.28558 c 10.06318,0 18.25062,7.98478 18.25062,17.798865 0,9.814084 -8.18744,17.798863 -18.25062,17.798863 h -33.28558 z m 17.28451,48.218966 34.88469,57.761639 -15.07732,6.57108 -36.3268,-15.60662 c 2.04105,-1.88034 3.3328,-4.52465 3.3328,-7.47276 0,-3.29567 -1.6232,-6.20084 -4.09871,-8.0893 V 96.040741 Z m -19.65701,41.254149 c 0,2.20359 -1.83918,3.99644 -4.0987,3.99644 -0.55491,0 -1.08407,-0.11099 -1.56838,-0.30624 l -0.0581,-0.0251 c -1.45206,-0.61571 -2.47217,-2.02455 -2.47217,-3.66429 0,-2.20359 1.83918,-3.99725 4.0987,-3.99725 2.25952,0 4.0987,1.79285 4.0987,3.99645 z m 83.04573,97.46113 c -2.25952,0 -4.0987,-1.79366 -4.0987,-3.99725 0,-2.20359 1.83918,-3.99644 4.0987,-3.99644 2.25952,0 4.0987,1.79203 4.0987,3.99644 0,2.2044 -1.83834,3.99725 -4.0987,3.99725 z"
     id="path2"
     inkscape:connector-curvature="0"
     style="stroke-width:0.82036078" /><path
     style="fill:#ffffff;stroke-width:1.06368816"
     d="m 208.02938,237.80175 c -2.40091,-2.01406 -2.99762,-3.40008 -2.99762,-6.96293 0,-3.73103 0.56283,-4.90655 3.49047,-7.29015 l 3.49045,-2.84183 -0.28362,-35.77169 -0.28364,-35.7717 -16.96436,7.36343 -16.96436,7.36342 v 37.68782 37.68781 h -5.91046 -5.91046 l -0.28287,-37.50547 -0.28289,-37.50546 -15.07944,-6.59134 c -8.29367,-3.62524 -15.44294,-6.60112 -15.88726,-6.61307 -0.4443,-0.0119 -0.80781,19.83163 -0.80781,44.09682 v 44.11852 h -5.92408 -5.92405 V 203.02572 166.78551 H 94.201983 c -28.932376,0 -32.775768,0.51432 -35.634039,4.76861 -2.490436,3.70681 -2.188367,11.11717 0.570912,14.00559 3.397488,3.55652 6.590941,4.33549 17.773472,4.33549 11.257002,0 16.216994,1.4217 21.266704,6.09576 5.163338,4.77924 7.543788,10.44106 7.594928,18.06439 0.0552,8.22586 -2.54916,13.77111 -8.994638,19.15163 -5.784357,4.82864 -10.57594,6.05895 -23.597256,6.05895 H 62.266732 v -5.77743 -5.77742 H 72.5338 c 11.335418,0 16.334938,-1.41619 18.962701,-5.3715 4.205489,-6.3301 3.23088,-13.56169 -2.456747,-18.22904 -2.974445,-2.44088 -4.091748,-2.66049 -13.536194,-2.66049 -12.032986,0 -17.055316,-1.23573 -22.362857,-5.50238 -11.224823,-9.02341 -11.224823,-26.19123 0,-35.21464 6.268159,-5.03886 9.656102,-5.50237 40.21769,-5.50237 h 28.148987 v -4.66696 c 0,-2.8577 -0.87919,-6.12016 -2.26788,-8.41555 -1.49786,-2.47582 -2.03946,-4.63619 -1.59513,-6.36269 l 0.67274,-2.61407 H 90.291916 62.266732 V 93.291601 c 0,-38.735568 -0.06149,-39.911896 -2.143058,-40.998341 -3.066056,-1.600286 -5.702143,-7.079333 -4.901956,-10.188611 1.974711,-7.673121 11.110886,-10.173725 16.821789,-4.604185 4.492797,4.381587 4.283092,8.768313 -0.63543,13.292253 l -3.783881,3.480326 0.283298,36.560464 0.283301,36.560463 26.658285,0.28096 26.6583,0.28096 V 81.65156 35.347235 l 26.65829,0.329186 c 25.19724,0.311144 26.93104,0.460245 31.63493,2.720485 18.90398,9.08343 23.76841,31.474399 10.24336,47.150146 -3.68556,4.271634 -12.8197,8.888558 -19.14054,9.674768 l -5.29746,0.65892 15.79824,26.26103 c 8.68903,14.44356 15.97052,26.45502 16.1811,26.69212 0.21057,0.2371 4.74816,-1.50806 10.08352,-3.87814 l 9.70068,-4.30925 v 39.92627 39.92629 l 3.91207,3.59825 c 3.51856,3.23628 3.84727,3.99527 3.26767,7.54515 -1.30643,8.00177 -10.31817,11.36172 -16.51986,6.15929 z m 10.59867,-5.33258 c 1.48973,-3.18868 -0.29245,-5.80853 -3.95131,-5.80853 -1.33594,0 -3.0443,0.72305 -3.79634,1.60676 -2.11024,2.47976 0.30102,6.79677 3.79634,6.79677 1.86753,0 3.12466,-0.82562 3.95131,-2.595 z m -39.47204,-75.07175 c 3.83763,-1.697 6.97059,-3.46962 6.96214,-3.93916 -0.009,-0.46954 -7.71895,-13.61656 -17.13445,-29.21561 l -17.11905,-28.36191 -9.25458,-0.303505 -9.25456,-0.303505 v 16.94488 c 0,15.3543 0.2022,17.19558 2.1542,19.6157 2.63225,3.26355 2.76085,7.37803 0.33612,10.75413 -0.99994,1.39227 -1.36345,2.68817 -0.80782,2.87976 0.55563,0.19157 8.52304,3.61908 17.70533,7.61667 9.18231,3.9976 17.31161,7.29753 18.06512,7.33318 0.75352,0.0356 4.50991,-1.32365 8.34755,-3.02063 z M 131.6257,139.21143 c 1.6147,-2.51498 -0.35434,-5.41813 -3.96119,-5.84038 -3.58211,-0.41937 -5.74122,2.93538 -3.96838,6.16594 1.44112,2.62611 6.15885,2.43243 7.92957,-0.32556 z m 42.98039,-56.829956 c 4.71634,-1.921832 10.18747,-8.226158 11.05563,-12.739297 1.50462,-7.821773 -2.24831,-15.926618 -9.22578,-19.924045 -3.35417,-1.921621 -5.91673,-2.195531 -23.42332,-2.503712 l -19.65711,-0.346037 v 18.466144 18.466146 h 18.88388 c 13.4237,0 19.89093,-0.410359 22.3667,-1.419199 z M 69.153749,45.722184 c 1.614698,-2.514975 -0.354335,-5.418127 -3.961179,-5.840379 -3.582115,-0.419358 -5.741221,2.935383 -3.968393,6.165945 1.441126,2.626117 6.158855,2.43242 7.929572,-0.325566 z"
     id="path7"
     inkscape:connector-curvature="0" /></svg>