<?xml version="1.0" encoding="UTF-8" standalone="no"?>
<!-- Generator: Adobe Illustrator 17.0.0, SVG Export Plug-In . SVG Version: 6.00 Build 0)  -->

<svg
   xmlns:dc="http://purl.org/dc/elements/1.1/"
   xmlns:cc="http://creativecommons.org/ns#"
   xmlns:rdf="http://www.w3.org/1999/02/22-rdf-syntax-ns#"
   xmlns:svg="http://www.w3.org/2000/svg"
   xmlns="http://www.w3.org/2000/svg"
   xmlns:sodipodi="http://sodipodi.sourceforge.net/DTD/sodipodi-0.dtd"
   xmlns:inkscape="http://www.inkscape.org/namespaces/inkscape"
   version="1.1"
   id="Layer_1"
   x="0px"
   y="0px"
   width="300"
   height="90"
   viewBox="0 0 300 90"
   enable-background="new 0 0 792 612"
   xml:space="preserve"
   sodipodi:docname="LOGO-LRSM-Typo.svg"
   inkscape:version="0.92.2 (5c3e80d, 2017-08-06)"><metadata
     id="metadata171"><rdf:RDF><cc:Work
         rdf:about=""><dc:format>image/svg+xml</dc:format><dc:type
           rdf:resource="http://purl.org/dc/dcmitype/StillImage" /><dc:title></dc:title></cc:Work></rdf:RDF></metadata><defs
     id="defs169" /><sodipodi:namedview
     pagecolor="#ffffff"
     bordercolor="#666666"
     borderopacity="1"
     objecttolerance="10"
     gridtolerance="10"
     guidetolerance="10"
     inkscape:pageopacity="0"
     inkscape:pageshadow="2"
     inkscape:window-width="1920"
     inkscape:window-height="1017"
     id="namedview167"
     showgrid="false"
     inkscape:zoom="2.1814013"
     inkscape:cx="303.63759"
     inkscape:cy="25.15646"
     inkscape:window-x="1072"
     inkscape:window-y="-8"
     inkscape:window-maximized="1"
     inkscape:current-layer="Layer_1" /><g
     id="g164"
     transform="matrix(0.89958256,0,0,0.81384794,-230.00943,-203.07947)"><path
       d="M 262.936,280.794 V 258.45 h 4.978 v 17.585 h 9.644 v 4.758 h -14.622 z"
       id="path92"
       inkscape:connector-curvature="0" /><path
       d="M 281.403,280.794 V 258.45 h 14.149 v 4.695 h -9.171 v 4.254 h 8.321 v 4.381 h -8.321 v 4.286 h 9.204 v 4.727 h -14.182 z"
       id="path94"
       inkscape:connector-curvature="0" /><path
       d="M 308.79,280.794 V 258.45 h 4.978 v 17.585 h 9.644 v 4.758 H 308.79 Z"
       id="path96"
       inkscape:connector-curvature="0" /><path
       d="m 340.684,276.256 h -8.636 l -1.607,4.538 h -5.232 l 8.416,-22.344 h 5.767 l 8.319,22.344 h -5.421 z m -6.998,-4.538 h 5.421 l -2.68,-7.721 z"
       id="path98"
       inkscape:connector-curvature="0" /><path
       d="m 359.433,258.451 c 4.413,0 6.965,2.553 6.965,5.988 0,2.3 -1.449,4.191 -3.279,4.79 2.017,0.472 3.972,2.332 3.972,5.23 0,3.656 -2.774,6.335 -6.998,6.335 h -9.012 V 258.45 h 8.352 z m -0.789,8.949 c 1.733,0 2.867,-0.914 2.867,-2.426 0,-1.449 -0.975,-2.395 -2.931,-2.395 h -2.647 v 4.821 z m 0.41,9.329 c 1.922,0 3.089,-1.008 3.089,-2.615 0,-1.545 -1.134,-2.616 -3.089,-2.616 h -3.12 v 5.23 h 3.12 z"
       id="path100"
       inkscape:connector-curvature="0" /><path
       d="m 381.491,257.979 c 6.271,0 11.597,4.569 11.597,11.66 0,7.059 -5.326,11.628 -11.597,11.628 -6.304,0 -11.63,-4.569 -11.63,-11.628 0,-7.091 5.326,-11.66 11.63,-11.66 z m 0,18.372 c 3.087,0 6.427,-2.08 6.427,-6.744 0,-4.664 -3.34,-6.775 -6.427,-6.775 -3.12,0 -6.463,2.112 -6.463,6.775 0,4.664 3.343,6.744 6.463,6.744 z"
       id="path102"
       inkscape:connector-curvature="0" /><path
       d="m 404.023,272.475 h -1.766 v 8.32 h -4.978 v -22.344 h 8.856 c 4.413,0 7.249,3.025 7.249,6.996 0,3.025 -1.671,5.325 -4.413,6.303 l 4.538,9.044 h -5.483 z m 1.164,-4.286 c 2.05,0 3.153,-1.134 3.153,-2.711 0,-1.67 -1.103,-2.711 -3.153,-2.711 h -2.931 v 5.421 h 2.931 z"
       id="path104"
       inkscape:connector-curvature="0" /><path
       d="m 431.029,276.256 h -8.636 l -1.607,4.538 h -5.232 l 8.416,-22.344 h 5.767 l 8.319,22.344 h -5.421 z m -6.998,-4.538 h 5.421 l -2.68,-7.721 z"
       id="path106"
       inkscape:connector-curvature="0" /><path
       d="m 449.399,263.209 v 17.585 h -4.978 v -17.585 h -6.87 v -4.758 h 18.751 v 4.758 z"
       id="path108"
       inkscape:connector-curvature="0" /><path
       d="m 469.788,257.979 c 6.271,0 11.597,4.569 11.597,11.66 0,7.059 -5.326,11.628 -11.597,11.628 -6.304,0 -11.63,-4.569 -11.63,-11.628 0,-7.091 5.326,-11.66 11.63,-11.66 z m 0,18.372 c 3.087,0 6.427,-2.08 6.427,-6.744 0,-4.664 -3.34,-6.775 -6.427,-6.775 -3.12,0 -6.46,2.112 -6.46,6.775 0,4.664 3.34,6.744 6.46,6.744 z"
       id="path110"
       inkscape:connector-curvature="0" /><path
       d="M 485.575,280.794 V 258.45 h 5.042 v 22.344 z"
       id="path112"
       inkscape:connector-curvature="0" /><path
       d="m 502.814,272.475 h -1.766 v 8.32 h -4.978 v -22.344 h 8.856 c 4.413,0 7.249,3.025 7.249,6.996 0,3.025 -1.671,5.325 -4.413,6.303 l 4.538,9.044 h -5.483 z m 1.164,-4.286 c 2.05,0 3.153,-1.134 3.153,-2.711 0,-1.67 -1.103,-2.711 -3.153,-2.711 h -2.931 v 5.421 h 2.931 z"
       id="path114"
       inkscape:connector-curvature="0" /><path
       d="M 516.49,280.794 V 258.45 h 14.149 v 4.695 h -9.171 v 4.254 h 8.321 v 4.381 h -8.321 v 4.286 h 9.204 v 4.727 H 516.49 Z"
       id="path116"
       inkscape:connector-curvature="0" /><path
       d="m 273.839,301.557 c -0.156,-1.04 -1.008,-2.805 -3.719,-2.805 -1.858,0 -3.056,1.166 -3.056,2.395 0,1.072 0.663,1.859 2.206,2.144 l 2.995,0.567 c 4.254,0.788 6.46,3.53 6.46,6.712 0,3.499 -2.931,7.059 -8.257,7.059 -6.176,0 -8.825,-4.002 -9.14,-7.153 l 4.569,-1.103 c 0.189,2.048 1.577,3.844 4.633,3.844 1.955,0 3.153,-0.946 3.153,-2.332 0,-1.135 -0.914,-1.954 -2.396,-2.238 l -3.056,-0.567 c -3.783,-0.724 -6.084,-3.246 -6.084,-6.555 0,-4.223 3.719,-7.185 8.006,-7.185 5.577,0 7.689,3.34 8.162,5.956 z"
       id="path118"
       inkscape:connector-curvature="0" /><path
       d="m 282.537,309.088 v -14.276 h 4.981 v 13.866 c 0,2.711 1.513,4.065 3.875,4.065 2.362,0 3.875,-1.354 3.875,-4.065 v -13.866 h 4.981 v 14.276 c 0,5.609 -3.939,8.572 -8.856,8.572 -4.917,0 -8.856,-2.963 -8.856,-8.572 z"
       id="path120"
       inkscape:connector-curvature="0" /><path
       d="m 312.286,308.836 h -1.766 v 8.32 h -4.978 v -22.344 h 8.856 c 4.413,0 7.249,3.025 7.249,6.996 0,3.025 -1.671,5.325 -4.413,6.303 l 4.538,9.044 h -5.483 z m 1.165,-4.286 c 2.05,0 3.153,-1.134 3.153,-2.711 0,-1.67 -1.103,-2.711 -3.153,-2.711 h -2.931 v 5.421 h 2.931 z"
       id="path122"
       inkscape:connector-curvature="0" /><path
       d="m 334.347,317.156 v -22.344 h 4.978 v 17.585 h 9.644 v 4.758 h -14.622 z"
       id="path124"
       inkscape:connector-curvature="0" /><path
       d="m 352.814,317.156 v -22.344 h 14.149 v 4.695 h -9.171 v 4.254 h 8.321 v 4.381 h -8.321 v 4.286 h 9.204 v 4.727 h -14.182 z"
       id="path126"
       inkscape:connector-curvature="0" /><path
       d="m 382.72,301.557 c -0.156,-1.04 -1.008,-2.805 -3.719,-2.805 -1.858,0 -3.056,1.166 -3.056,2.395 0,1.072 0.663,1.859 2.206,2.144 l 2.995,0.567 c 4.254,0.788 6.46,3.53 6.46,6.712 0,3.499 -2.931,7.059 -8.257,7.059 -6.176,0 -8.825,-4.002 -9.14,-7.153 l 4.569,-1.103 c 0.189,2.048 1.577,3.844 4.633,3.844 1.955,0 3.153,-0.946 3.153,-2.332 0,-1.135 -0.914,-1.954 -2.396,-2.238 l -3.056,-0.567 c -3.783,-0.724 -6.084,-3.246 -6.084,-6.555 0,-4.223 3.719,-7.185 8.006,-7.185 5.577,0 7.689,3.34 8.162,5.956 z"
       id="path128"
       inkscape:connector-curvature="0" /><path
       d="M 406.766,308.836 H 405 v 8.32 h -4.978 v -22.344 h 8.856 c 4.413,0 7.249,3.025 7.249,6.996 0,3.025 -1.671,5.325 -4.413,6.303 l 4.538,9.044 h -5.483 z m 1.167,-4.286 c 2.048,0 3.151,-1.134 3.151,-2.711 0,-1.67 -1.103,-2.711 -3.151,-2.711 H 405 v 5.421 h 2.933 z"
       id="path130"
       inkscape:connector-curvature="0" /><path
       d="m 420.442,317.156 v -22.344 h 14.149 v 4.695 h -9.171 v 4.254 h 8.321 v 4.381 h -8.321 v 4.286 h 9.204 v 4.727 h -14.182 z m 8.257,-23.919 h -4.254 l 3.276,-4.16 h 5.705 z"
       id="path132"
       inkscape:connector-curvature="0" /><path
       d="m 438.121,306.031 c 0,-6.965 5.296,-11.691 11.536,-11.691 6.711,0 9.675,4.317 10.399,7.531 l -4.697,1.481 c -0.346,-1.543 -1.764,-4.159 -5.703,-4.159 -2.995,0 -6.366,2.142 -6.366,6.838 0,4.191 3.087,6.619 6.427,6.619 3.878,0 5.421,-2.585 5.861,-4.191 l 4.761,1.354 c -0.727,3.089 -3.688,7.816 -10.622,7.816 -6.426,-0.001 -11.596,-4.633 -11.596,-11.598 z"
       id="path134"
       inkscape:connector-curvature="0" /><path
       d="m 464.374,317.156 v -22.344 h 5.042 v 22.344 z"
       id="path136"
       inkscape:connector-curvature="0" /><path
       d="m 484.886,299.57 v 17.585 h -4.978 V 299.57 h -6.87 v -4.758 h 18.751 v 4.758 z"
       id="path138"
       inkscape:connector-curvature="0" /><path
       d="m 506.346,301.557 c -0.156,-1.04 -1.008,-2.805 -3.719,-2.805 -1.858,0 -3.056,1.166 -3.056,2.395 0,1.072 0.663,1.859 2.206,2.144 l 2.995,0.567 c 4.254,0.788 6.46,3.53 6.46,6.712 0,3.499 -2.931,7.059 -8.257,7.059 -6.179,0 -8.825,-4.002 -9.14,-7.153 l 4.569,-1.103 c 0.189,2.048 1.577,3.844 4.633,3.844 1.955,0 3.153,-0.946 3.153,-2.332 0,-1.135 -0.914,-1.954 -2.396,-2.238 l -3.056,-0.567 c -3.783,-0.724 -6.084,-3.246 -6.084,-6.555 0,-4.223 3.719,-7.185 8.006,-7.185 5.577,0 7.689,3.34 8.162,5.956 z"
       id="path140"
       inkscape:connector-curvature="0" /><path
       d="m 262.936,353.517 v -22.344 h 8.098 c 6.714,0 11.221,4.286 11.221,11.188 0,6.902 -4.507,11.156 -11.252,11.156 z m 7.878,-4.695 c 3.435,0 6.24,-1.985 6.24,-6.46 0,-4.475 -2.805,-6.492 -6.24,-6.492 h -2.9 v 12.953 h 2.9 z"
       id="path142"
       inkscape:connector-curvature="0" /><path
       d="m 286.253,345.449 v -14.276 h 4.981 v 13.866 c 0,2.711 1.513,4.065 3.875,4.065 2.363,0 3.875,-1.354 3.875,-4.065 v -13.866 h 4.981 v 14.276 c 0,5.609 -3.939,8.572 -8.856,8.572 -4.917,0 -8.856,-2.962 -8.856,-8.572 z"
       id="path144"
       inkscape:connector-curvature="0" /><path
       d="m 328.547,337.918 c -0.156,-1.04 -1.008,-2.805 -3.719,-2.805 -1.858,0 -3.056,1.166 -3.056,2.395 0,1.072 0.663,1.859 2.206,2.144 l 2.995,0.567 c 4.254,0.788 6.46,3.53 6.46,6.712 0,3.499 -2.931,7.059 -8.257,7.059 -6.176,0 -8.825,-4.002 -9.14,-7.153 l 4.569,-1.103 c 0.189,2.048 1.577,3.844 4.633,3.844 1.955,0 3.153,-0.946 3.153,-2.332 0,-1.135 -0.914,-1.954 -2.396,-2.238 l -3.056,-0.567 c -3.783,-0.724 -6.084,-3.246 -6.084,-6.555 0,-4.223 3.719,-7.185 8.006,-7.185 5.577,0 7.689,3.34 8.162,5.956 z"
       id="path146"
       inkscape:connector-curvature="0" /><path
       d="m 347.772,330.701 c 6.271,0 11.597,4.569 11.597,11.66 0,7.059 -5.326,11.628 -11.597,11.628 -6.304,0 -11.63,-4.569 -11.63,-11.628 -10e-4,-7.091 5.325,-11.66 11.63,-11.66 z m 0,18.373 c 3.087,0 6.427,-2.08 6.427,-6.744 0,-4.664 -3.34,-6.775 -6.427,-6.775 -3.12,0 -6.463,2.112 -6.463,6.775 0,4.664 3.342,6.744 6.463,6.744 z"
       id="path148"
       inkscape:connector-curvature="0" /><path
       d="m 363.557,353.517 v -22.344 h 5.042 v 22.344 z"
       id="path150"
       inkscape:connector-curvature="0" /><path
       d="m 402.858,353.517 v -14.812 l -5.831,14.812 h -4.034 l -5.831,-14.623 v 14.623 h -4.727 v -22.344 h 6.491 l 6.145,15.095 5.831,-15.095 h 6.839 v 22.344 z"
       id="path152"
       inkscape:connector-curvature="0" /><path
       d="m 423.56,330.701 c 6.271,0 11.597,4.569 11.597,11.66 0,7.059 -5.326,11.628 -11.597,11.628 -6.304,0 -11.63,-4.569 -11.63,-11.628 -0.001,-7.091 5.326,-11.66 11.63,-11.66 z m 0,18.373 c 3.087,0 6.427,-2.08 6.427,-6.744 0,-4.664 -3.34,-6.775 -6.427,-6.775 -3.12,0 -6.46,2.112 -6.46,6.775 0,4.664 3.34,6.744 6.46,6.744 z"
       id="path154"
       inkscape:connector-curvature="0" /><path
       d="m 447.697,331.174 c 4.413,0 6.965,2.553 6.965,5.988 0,2.3 -1.449,4.191 -3.279,4.79 2.017,0.472 3.972,2.332 3.972,5.23 0,3.656 -2.774,6.335 -6.998,6.335 h -9.012 v -22.344 h 8.352 z m -0.789,8.949 c 1.733,0 2.869,-0.914 2.869,-2.426 0,-1.449 -0.978,-2.394 -2.933,-2.394 h -2.647 v 4.821 h 2.711 z m 0.41,9.328 c 1.922,0 3.089,-1.008 3.089,-2.615 0,-1.545 -1.136,-2.616 -3.089,-2.616 h -3.12 v 5.23 h 3.12 z"
       id="path156"
       inkscape:connector-curvature="0" /><path
       d="m 459.417,353.517 v -22.344 h 5.042 v 22.344 z"
       id="path158"
       inkscape:connector-curvature="0" /><path
       d="m 469.911,353.517 v -22.344 h 4.978 v 17.585 h 9.644 v 4.758 h -14.622 z"
       id="path160"
       inkscape:connector-curvature="0" /><path
       d="m 488.378,353.517 v -22.344 h 14.149 v 4.695 h -9.171 v 4.254 h 8.321 v 4.381 h -8.321 v 4.286 h 9.204 v 4.727 h -14.182 z"
       id="path162"
       inkscape:connector-curvature="0" /></g></svg>