<?xml version="1.0" encoding="UTF-8" standalone="no"?>
<!-- Generator: Adobe Illustrator 17.0.0, SVG Export Plug-In . SVG Version: 6.00 Build 0)  -->

<svg
   xmlns:dc="http://purl.org/dc/elements/1.1/"
   xmlns:cc="http://creativecommons.org/ns#"
   xmlns:rdf="http://www.w3.org/1999/02/22-rdf-syntax-ns#"
   xmlns:svg="http://www.w3.org/2000/svg"
   xmlns="http://www.w3.org/2000/svg"
   xmlns:sodipodi="http://sodipodi.sourceforge.net/DTD/sodipodi-0.dtd"
   xmlns:inkscape="http://www.inkscape.org/namespaces/inkscape"
   version="1.1"
   id="Layer_1"
   x="0px"
   y="0px"
   width="300"
   height="300"
   viewBox="0 0 300 300"
   enable-background="new 0 0 792 612"
   xml:space="preserve"
   sodipodi:docname="LOGO-LRSM-INVERSE.svg"
   inkscape:version="0.92.2 (5c3e80d, 2017-08-06)"><metadata
     id="metadata9"><rdf:RDF><cc:Work
         rdf:about=""><dc:format>image/svg+xml</dc:format><dc:type
           rdf:resource="http://purl.org/dc/dcmitype/StillImage" /><dc:title></dc:title></cc:Work></rdf:RDF></metadata><defs
     id="defs7" /><sodipodi:namedview
     pagecolor="#ffffff"
     bordercolor="#666666"
     borderopacity="1"
     objecttolerance="10"
     gridtolerance="10"
     guidetolerance="10"
     inkscape:pageopacity="0"
     inkscape:pageshadow="2"
     inkscape:window-width="1920"
     inkscape:window-height="1017"
     id="namedview5"
     showgrid="false"
     inkscape:zoom="1.5424837"
     inkscape:cx="329.74732"
     inkscape:cy="213.10616"
     inkscape:window-x="1072"
     inkscape:window-y="-8"
     inkscape:window-maximized="1"
     inkscape:current-layer="Layer_1" /><path
     d="m 230.89848,235.62445 v -81.02898 l -19.84974,8.65153 -31.75375,-52.57914 h 0.9794 c 17.20061,0 31.19303,-13.646073 31.19303,-30.420909 0,-16.77484 -13.99242,-30.42091 -31.19303,-30.42091 H 134.04641 V 141.59914 H 81.304021 V 68.280311 c 4.23909,-1.3416 7.33348,-5.18492 7.33348,-9.76062 0,-5.68316 -4.74085,-10.30827 -10.56825,-10.30827 -5.82741,0 -10.56991,4.62511 -10.56991,10.30827 0,4.5757 3.09438,8.41902 7.33431,9.76062 v 79.629859 h 55.947259 c -0.53581,1.23384 -0.83321,2.58921 -0.83321,4.01102 0,3.29566 1.62321,6.20084 4.09871,8.08928 v 9.6075 H 80.192541 c -12.84024,0 -23.285544,10.47436 -23.285544,23.35078 0,12.87562 10.446144,23.35078 23.285544,23.35078 h 14.683563 c 6.622396,0 11.810156,5.55678 11.810156,12.65121 0,6.7161 -5.08974,12.22588 -11.492826,12.62771 H 74.512161 v 12.62205 l 19.931143,0.0235 c 13.886086,0 25.184526,-11.33716 25.184526,-25.27326 0,-14.17266 -10.87228,-25.27326 -24.751726,-25.27326 H 80.192541 c -5.70364,0 -10.34396,-4.81305 -10.34396,-10.72873 0,-5.91567 4.63949,-10.72873 10.34396,-10.72873 h 53.853869 v 71.81278 h 12.9424 v -88.09101 l 30.63064,13.16079 v 74.93022 h 12.94241 v -74.96344 l 33.86624,-14.76163 v 71.29591 c -4.23993,1.34161 -7.33431,5.18492 -7.33431,9.76062 0,5.68316 4.74251,10.30827 10.56991,10.30827 5.82741,0 10.56991,-4.62511 10.56991,-10.30827 -8.3e-4,-4.57489 -3.09438,-8.41821 -7.33513,-9.75981 z M 78.069251,54.523251 c 2.25952,0 4.09787,1.79366 4.09787,3.99725 0,2.2036 -1.83752,3.99644 -4.09787,3.99644 -2.26035,0 -4.09871,-1.79203 -4.09871,-3.99644 0,-2.2044 1.83919,-3.99725 4.09871,-3.99725 z m 68.920389,7.92564 h 33.28558 c 10.06318,0 18.25062,7.98478 18.25062,17.79887 0,9.81408 -8.18744,17.798856 -18.25062,17.798856 h -33.28558 z m 17.28451,48.218969 34.88469,57.76163 -15.07732,6.57108 -36.3268,-15.60662 c 2.04105,-1.88034 3.3328,-4.52465 3.3328,-7.47276 0,-3.29567 -1.6232,-6.20084 -4.09871,-8.0893 V 110.66786 Z M 144.61714,151.922 c 0,2.20359 -1.83918,3.99644 -4.0987,3.99644 -0.55491,0 -1.08407,-0.11099 -1.56838,-0.30624 l -0.0581,-0.0251 c -1.45206,-0.61571 -2.47217,-2.02455 -2.47217,-3.66429 0,-2.20359 1.83918,-3.99725 4.0987,-3.99725 2.25952,0 4.0987,1.79285 4.0987,3.99645 z m 83.04573,97.46113 c -2.25952,0 -4.0987,-1.79366 -4.0987,-3.99725 0,-2.20359 1.83918,-3.99644 4.0987,-3.99644 2.25952,0 4.0987,1.79203 4.0987,3.99644 0,2.2044 -1.83834,3.99725 -4.0987,3.99725 z"
     id="path2"
     inkscape:connector-curvature="0"
     style="stroke-width:0.82036078" /><path
     style="fill:#ffffff;stroke-width:1.06368816"
     d="m 220.99548,252.42886 c -2.40091,-2.01406 -2.99762,-3.40008 -2.99762,-6.96293 0,-3.73103 0.56283,-4.90655 3.49047,-7.29015 l 3.49045,-2.84183 -0.28362,-35.77169 -0.28364,-35.7717 -16.96436,7.36343 -16.96436,7.36342 v 37.68782 37.68781 h -5.91046 -5.91046 l -0.28287,-37.50547 -0.28289,-37.50546 -15.07944,-6.59134 c -8.29367,-3.62524 -15.44294,-6.60112 -15.88726,-6.61307 -0.4443,-0.0119 -0.80781,19.83163 -0.80781,44.09682 v 44.11852 h -5.92408 -5.92405 v -36.24021 -36.24021 h -27.30539 c -28.932379,0 -32.775769,0.51432 -35.634039,4.76861 -2.49044,3.70681 -2.18837,11.11717 0.57091,14.00559 3.39749,3.55652 6.59094,4.33549 17.77347,4.33549 11.256999,0 16.216999,1.4217 21.266709,6.09576 5.16333,4.77924 7.54378,10.44106 7.59492,18.06439 0.0552,8.22586 -2.54916,13.77111 -8.99463,19.15163 -5.78436,4.82864 -10.575936,6.05895 -23.597259,6.05895 h -10.91533 v -5.77743 -5.77742 h 10.26706 c 11.335423,0 16.334939,-1.41619 18.962699,-5.3715 4.20549,-6.3301 3.23088,-13.56169 -2.45674,-18.22904 -2.974446,-2.44088 -4.091746,-2.66049 -13.536199,-2.66049 -12.03298,0 -17.05531,-1.23573 -22.36285,-5.50238 -11.224834,-9.02341 -11.224834,-26.19123 0,-35.21464 6.26816,-5.03886 9.6561,-5.50237 40.217689,-5.50237 h 28.14898 v -4.66696 c 0,-2.8577 -0.87919,-6.12016 -2.26788,-8.41555 -1.49786,-2.47582 -2.03946,-4.63619 -1.59513,-6.36269 l 0.67274,-2.61407 H 103.25802 75.232841 v -39.87978 c 0,-38.735569 -0.0615,-39.911899 -2.14306,-40.998339 -3.06606,-1.60029 -5.70215,-7.07933 -4.90196,-10.18861 1.97471,-7.67312 11.11089,-10.17373 16.82179,-4.60419 4.4928,4.38159 4.28309,8.76832 -0.63543,13.29226 l -3.78388,3.48032 0.2833,36.560459 0.2833,36.56046 26.658279,0.28096 26.6583,0.28096 V 96.278667 49.974351 l 26.65829,0.32919 c 25.19724,0.31114 26.93104,0.46024 31.63493,2.72048 18.90398,9.08343 23.76841,31.4744 10.24336,47.150149 -3.68556,4.27163 -12.8197,8.88855 -19.14054,9.67476 l -5.29746,0.65892 15.79824,26.26103 c 8.68903,14.44356 15.97052,26.45502 16.1811,26.69212 0.21057,0.2371 4.74816,-1.50806 10.08352,-3.87814 l 9.70068,-4.30925 v 39.92627 39.92629 l 3.91207,3.59825 c 3.51856,3.23628 3.84727,3.99527 3.26767,7.54515 -1.30643,8.00177 -10.31817,11.36172 -16.51986,6.15929 z m 10.59867,-5.33258 c 1.48973,-3.18868 -0.29245,-5.80853 -3.95131,-5.80853 -1.33594,0 -3.0443,0.72305 -3.79634,1.60676 -2.11024,2.47976 0.30102,6.79677 3.79634,6.79677 1.86753,0 3.12466,-0.82562 3.95131,-2.595 z m -39.47204,-75.07175 c 3.83763,-1.697 6.97059,-3.46962 6.96214,-3.93916 -0.009,-0.46954 -7.71895,-13.61656 -17.13445,-29.21561 l -17.11905,-28.36191 -9.25458,-0.3035 -9.25456,-0.30351 v 16.94488 c 0,15.3543 0.2022,17.19558 2.1542,19.6157 2.63225,3.26355 2.76085,7.37803 0.33612,10.75413 -0.99994,1.39227 -1.36345,2.68817 -0.80782,2.87976 0.55563,0.19157 8.52304,3.61908 17.70533,7.61667 9.18231,3.9976 17.31161,7.29753 18.06512,7.33318 0.75352,0.0356 4.50991,-1.32365 8.34755,-3.02063 z M 144.5918,153.83854 c 1.6147,-2.51498 -0.35434,-5.41813 -3.96119,-5.84038 -3.58211,-0.41937 -5.74122,2.93538 -3.96838,6.16594 1.44112,2.62611 6.15885,2.43243 7.92957,-0.32556 z m 42.98039,-56.829953 c 4.71634,-1.921826 10.18747,-8.226156 11.05563,-12.739296 1.50462,-7.82177 -2.24831,-15.92661 -9.22578,-19.92404 -3.35417,-1.92162 -5.91673,-2.19553 -23.42332,-2.50371 l -19.65711,-0.34604 v 18.46615 18.466136 h 18.88388 c 13.4237,0 19.89093,-0.41036 22.3667,-1.4192 z M 82.119851,60.349301 c 1.6147,-2.51497 -0.35433,-5.41813 -3.96118,-5.84038 -3.58211,-0.41936 -5.74122,2.93539 -3.96839,6.16595 1.44113,2.62611 6.15886,2.43242 7.92957,-0.32557 z"
     id="path7"
     inkscape:connector-curvature="0" /></svg>