<?xml version="1.0" encoding="UTF-8" standalone="no"?>
<!-- Generator: Adobe Illustrator 17.0.0, SVG Export Plug-In . SVG Version: 6.00 Build 0)  -->

<svg
   xmlns:dc="http://purl.org/dc/elements/1.1/"
   xmlns:cc="http://creativecommons.org/ns#"
   xmlns:rdf="http://www.w3.org/1999/02/22-rdf-syntax-ns#"
   xmlns:svg="http://www.w3.org/2000/svg"
   xmlns="http://www.w3.org/2000/svg"
   xmlns:sodipodi="http://sodipodi.sourceforge.net/DTD/sodipodi-0.dtd"
   xmlns:inkscape="http://www.inkscape.org/namespaces/inkscape"
   version="1.1"
   id="Layer_1"
   x="0px"
   y="0px"
   width="220"
   height="220"
   viewBox="0 0 220 220"
   enable-background="new 0 0 792 612"
   xml:space="preserve"
   sodipodi:docname="LRSM-Auto.svg"
   inkscape:version="0.92.2 (5c3e80d, 2017-08-06)"><metadata
     id="metadata4053"><rdf:RDF><cc:Work
         rdf:about=""><dc:format>image/svg+xml</dc:format><dc:type
           rdf:resource="http://purl.org/dc/dcmitype/StillImage" /><dc:title></dc:title></cc:Work></rdf:RDF></metadata><defs
     id="defs4051" /><sodipodi:namedview
     pagecolor="#ffffff"
     bordercolor="#666666"
     borderopacity="1"
     objecttolerance="10"
     gridtolerance="10"
     guidetolerance="10"
     inkscape:pageopacity="0"
     inkscape:pageshadow="2"
     inkscape:window-width="1920"
     inkscape:window-height="1017"
     id="namedview4049"
     showgrid="false"
     inkscape:zoom="2.1814013"
     inkscape:cx="208.61901"
     inkscape:cy="108.59042"
     inkscape:window-x="1072"
     inkscape:window-y="-8"
     inkscape:window-maximized="1"
     inkscape:current-layer="Layer_1" /><g
     id="g4046"
     transform="translate(-287.08792,-196.13321)"><circle
       stroke-miterlimit="10"
       cx="396.702"
       cy="306.53799"
       r="104.228"
       id="circle4018"
       style="fill:none;stroke:#231f20;stroke-width:6;stroke-linecap:round;stroke-linejoin:round;stroke-miterlimit:10" /><circle
       stroke-miterlimit="10"
       cx="396.702"
       cy="306.53799"
       r="62.224998"
       id="circle4020"
       style="fill:none;stroke:#231f20;stroke-width:6;stroke-linecap:round;stroke-linejoin:round;stroke-miterlimit:10" /><circle
       stroke-miterlimit="10"
       cx="396.702"
       cy="306.53799"
       r="39.368"
       id="circle4022"
       style="fill:none;stroke:#231f20;stroke-width:6;stroke-linecap:round;stroke-linejoin:round;stroke-miterlimit:10" /><circle
       stroke-miterlimit="10"
       cx="396.702"
       cy="306.53799"
       r="5.2789998"
       id="circle4024"
       style="fill:none;stroke:#231f20;stroke-width:6;stroke-linecap:round;stroke-linejoin:round;stroke-miterlimit:10" /><path
       stroke-miterlimit="10"
       d="M 396.702,306.538"
       id="path4026"
       inkscape:connector-curvature="0"
       style="fill:none;stroke:#231f20;stroke-width:6;stroke-linecap:round;stroke-linejoin:round;stroke-miterlimit:10" /><g
       id="g4032"><path
         stroke-miterlimit="10"
         d="m 406.293,277.311 -7.934,14.55 0.001,0.002 c -0.251,0.637 -0.872,1.087 -1.598,1.087 h -0.12 c -0.726,0 -1.347,-0.451 -1.598,-1.087 l 0.001,-0.002 -7.934,-14.55 v 0 c 3.001,-0.976 6.204,-1.503 9.531,-1.503 3.367,0 6.607,0.54 9.64,1.539 z"
         id="path4028"
         inkscape:connector-curvature="0"
         style="fill:none;stroke:#231f20;stroke-width:6;stroke-linecap:round;stroke-linejoin:round;stroke-miterlimit:10" /><path
         stroke-miterlimit="10"
         d="m 387.112,335.766 7.934,-14.55 -10e-4,-0.002 c 0.251,-0.637 0.872,-1.087 1.598,-1.087 h 0.12 c 0.726,0 1.347,0.451 1.598,1.087 l -10e-4,0.002 7.934,14.55 v 0 c -3.001,0.976 -6.204,1.503 -9.531,1.503 -3.367,0 -6.607,-0.54 -9.64,-1.539 z"
         id="path4030"
         inkscape:connector-curvature="0"
         style="fill:none;stroke:#231f20;stroke-width:6;stroke-linecap:round;stroke-linejoin:round;stroke-miterlimit:10" /></g><g
       id="g4038"><path
         stroke-miterlimit="10"
         d="m 376.186,283.618 8.634,14.146 h 0.003 c 0.426,0.536 0.506,1.299 0.143,1.928 l -0.06,0.104 c -0.363,0.629 -1.064,0.941 -1.741,0.84 l -0.001,-0.002 -16.568,-0.404 v 0 c 0.655,-3.087 1.8,-6.125 3.464,-9.006 1.683,-2.916 3.772,-5.452 6.153,-7.579 z"
         id="path4034"
         inkscape:connector-curvature="0"
         style="fill:none;stroke:#231f20;stroke-width:6;stroke-linecap:round;stroke-linejoin:round;stroke-miterlimit:10" /><path
         stroke-miterlimit="10"
         d="m 417.219,329.458 -8.634,-14.146 h -0.003 c -0.426,-0.536 -0.506,-1.299 -0.143,-1.928 l 0.06,-0.104 c 0.363,-0.629 1.064,-0.941 1.741,-0.84 l 10e-4,0.002 16.568,0.404 v 0 c -0.655,3.087 -1.8,6.125 -3.463,9.006 -1.683,2.916 -3.772,5.452 -6.153,7.579 z"
         id="path4036"
         inkscape:connector-curvature="0"
         style="fill:none;stroke:#231f20;stroke-width:6;stroke-linecap:round;stroke-linejoin:round;stroke-miterlimit:10" /></g><g
       id="g4044"><path
         stroke-miterlimit="10"
         d="m 366.595,312.846 16.568,-0.404 10e-4,-0.002 c 0.677,-0.101 1.378,0.211 1.741,0.84 l 0.06,0.104 c 0.363,0.629 0.283,1.392 -0.143,1.928 h -0.003 l -8.634,14.146 v 0 c -2.346,-2.111 -4.404,-4.621 -6.067,-7.502 -1.683,-2.916 -2.836,-5.992 -3.487,-9.118 z"
         id="path4040"
         inkscape:connector-curvature="0"
         style="fill:none;stroke:#231f20;stroke-width:6;stroke-linecap:round;stroke-linejoin:round;stroke-miterlimit:10" /><path
         stroke-miterlimit="10"
         d="m 426.81,300.23 -16.568,0.404 -0.001,0.002 c -0.677,0.101 -1.378,-0.211 -1.741,-0.84 l -0.06,-0.104 c -0.363,-0.629 -0.283,-1.392 0.143,-1.928 h 0.003 l 8.634,-14.146 v 0 c 2.346,2.111 4.404,4.621 6.067,7.502 1.683,2.916 2.836,5.992 3.487,9.118 z"
         id="path4042"
         inkscape:connector-curvature="0"
         style="fill:none;stroke:#231f20;stroke-width:6;stroke-linecap:round;stroke-linejoin:round;stroke-miterlimit:10" /></g></g></svg>